<mxfile host="app.diagrams.net" modified="2023-08-24T10:35:59.797Z" agent="Mozilla/5.0 (X11; Linux x86_64) AppleWebKit/537.36 (KHTML, like Gecko) Chrome/116.0.0.0 Safari/537.36" etag="Hw-sX0bSPUQ1b8fJ5K6B" version="21.6.9" type="device">
  <diagram name="Page-1" id="UQsnTjQEGRS4cMBRD5Oz">
    <mxGraphModel dx="1687" dy="942" grid="1" gridSize="10" guides="1" tooltips="1" connect="1" arrows="1" fold="1" page="1" pageScale="1" pageWidth="850" pageHeight="1100" math="0" shadow="0">
      <root>
        <mxCell id="0" />
        <mxCell id="1" parent="0" />
        <mxCell id="frIzDJCanj5uJxa8QT5g-96" value="" style="rounded=0;whiteSpace=wrap;html=1;" vertex="1" parent="1">
          <mxGeometry width="850" height="1100" as="geometry" />
        </mxCell>
        <mxCell id="frIzDJCanj5uJxa8QT5g-12" value="" style="rounded=0;whiteSpace=wrap;html=1;fillColor=#D4E1F5;" vertex="1" parent="1">
          <mxGeometry x="40.5" y="190" width="770" height="880" as="geometry" />
        </mxCell>
        <mxCell id="frIzDJCanj5uJxa8QT5g-1" value="" style="rounded=0;whiteSpace=wrap;html=1;fillColor=#A9C4EB;" vertex="1" parent="1">
          <mxGeometry x="90" y="350" width="670" height="680" as="geometry" />
        </mxCell>
        <mxCell id="frIzDJCanj5uJxa8QT5g-11" value="" style="rounded=0;whiteSpace=wrap;html=1;fillColor=#D4E1F5;" vertex="1" parent="1">
          <mxGeometry x="140" y="510" width="570" height="490" as="geometry" />
        </mxCell>
        <mxCell id="frIzDJCanj5uJxa8QT5g-5" style="rounded=0;orthogonalLoop=1;jettySize=auto;html=1;exitX=0;exitY=0.5;exitDx=0;exitDy=0;entryX=1;entryY=0.5;entryDx=0;entryDy=0;strokeWidth=3;dashed=1;startArrow=classic;startFill=1;" edge="1" parent="1" source="zBajbP6qu9b_NIQNirfu-1" target="frIzDJCanj5uJxa8QT5g-3">
          <mxGeometry relative="1" as="geometry" />
        </mxCell>
        <mxCell id="frIzDJCanj5uJxa8QT5g-9" style="rounded=0;orthogonalLoop=1;jettySize=auto;html=1;exitX=0.25;exitY=1;exitDx=0;exitDy=0;entryX=0.5;entryY=0;entryDx=0;entryDy=0;strokeWidth=2;startArrow=classic;startFill=1;dashed=1;" edge="1" parent="1" source="zBajbP6qu9b_NIQNirfu-1" target="frIzDJCanj5uJxa8QT5g-6">
          <mxGeometry relative="1" as="geometry" />
        </mxCell>
        <mxCell id="frIzDJCanj5uJxa8QT5g-10" style="rounded=0;orthogonalLoop=1;jettySize=auto;html=1;exitX=0.75;exitY=1;exitDx=0;exitDy=0;entryX=0.5;entryY=0;entryDx=0;entryDy=0;strokeWidth=2;dashed=1;startArrow=classic;startFill=1;" edge="1" parent="1" source="zBajbP6qu9b_NIQNirfu-1" target="frIzDJCanj5uJxa8QT5g-8">
          <mxGeometry relative="1" as="geometry" />
        </mxCell>
        <mxCell id="zBajbP6qu9b_NIQNirfu-1" value="" style="image;html=1;image=img/lib/clip_art/networking/Wireless_Router_N_128x128.png" parent="1" vertex="1">
          <mxGeometry x="385" y="190" width="80" height="80" as="geometry" />
        </mxCell>
        <mxCell id="frIzDJCanj5uJxa8QT5g-3" value="" style="image;aspect=fixed;perimeter=ellipsePerimeter;html=1;align=center;shadow=0;dashed=0;spacingTop=3;image=img/lib/active_directory/internet_cloud.svg;" vertex="1" parent="1">
          <mxGeometry x="183.45" y="40" width="111.11" height="70" as="geometry" />
        </mxCell>
        <mxCell id="frIzDJCanj5uJxa8QT5g-4" value="&lt;b&gt;&lt;font color=&quot;#ffffff&quot;&gt;WEB&lt;/font&gt;&lt;/b&gt;" style="text;strokeColor=none;align=center;fillColor=none;html=1;verticalAlign=middle;whiteSpace=wrap;rounded=0;" vertex="1" parent="1">
          <mxGeometry x="203.45" y="60" width="60" height="30" as="geometry" />
        </mxCell>
        <mxCell id="frIzDJCanj5uJxa8QT5g-15" style="rounded=0;orthogonalLoop=1;jettySize=auto;html=1;exitX=0.5;exitY=1;exitDx=0;exitDy=0;entryX=0.25;entryY=0;entryDx=0;entryDy=0;dashed=1;startArrow=classic;startFill=1;" edge="1" parent="1" source="frIzDJCanj5uJxa8QT5g-6" target="zBajbP6qu9b_NIQNirfu-9">
          <mxGeometry relative="1" as="geometry" />
        </mxCell>
        <mxCell id="frIzDJCanj5uJxa8QT5g-6" value="&lt;b&gt;&lt;font style=&quot;font-size: 18px;&quot;&gt;port 80&lt;/font&gt;&lt;/b&gt;" style="rounded=1;whiteSpace=wrap;html=1;fillColor=#A9C4EB;" vertex="1" parent="1">
          <mxGeometry x="315" y="310" width="70" height="60" as="geometry" />
        </mxCell>
        <mxCell id="frIzDJCanj5uJxa8QT5g-7" value="&lt;span style=&quot;font-size: 20px;&quot;&gt;&lt;b style=&quot;font-size: 20px;&quot;&gt;host&lt;br style=&quot;font-size: 20px;&quot;&gt;&lt;/b&gt;&lt;/span&gt;" style="text;strokeColor=none;align=center;fillColor=none;html=1;verticalAlign=middle;whiteSpace=wrap;rounded=0;fontSize=20;" vertex="1" parent="1">
          <mxGeometry x="90" y="350" width="85" height="50" as="geometry" />
        </mxCell>
        <mxCell id="frIzDJCanj5uJxa8QT5g-16" style="rounded=0;orthogonalLoop=1;jettySize=auto;html=1;exitX=0.5;exitY=1;exitDx=0;exitDy=0;dashed=1;startArrow=classic;startFill=1;" edge="1" parent="1" source="frIzDJCanj5uJxa8QT5g-8" target="frIzDJCanj5uJxa8QT5g-1">
          <mxGeometry relative="1" as="geometry">
            <mxPoint x="490" y="470" as="targetPoint" />
          </mxGeometry>
        </mxCell>
        <mxCell id="frIzDJCanj5uJxa8QT5g-28" style="rounded=0;orthogonalLoop=1;jettySize=auto;html=1;entryX=0.75;entryY=0;entryDx=0;entryDy=0;dashed=1;startArrow=classic;startFill=1;" edge="1" parent="1" source="frIzDJCanj5uJxa8QT5g-8" target="zBajbP6qu9b_NIQNirfu-9">
          <mxGeometry relative="1" as="geometry" />
        </mxCell>
        <mxCell id="frIzDJCanj5uJxa8QT5g-8" value="&lt;b style=&quot;font-size: 18px;&quot;&gt;&lt;font style=&quot;font-size: 18px;&quot;&gt;port 443&lt;/font&gt;&lt;/b&gt;" style="rounded=1;whiteSpace=wrap;html=1;fillColor=#A9C4EB;fontSize=18;" vertex="1" parent="1">
          <mxGeometry x="460" y="310" width="80" height="60" as="geometry" />
        </mxCell>
        <mxCell id="frIzDJCanj5uJxa8QT5g-89" style="edgeStyle=orthogonalEdgeStyle;rounded=0;orthogonalLoop=1;jettySize=auto;html=1;exitX=0.5;exitY=1;exitDx=0;exitDy=0;entryX=0.5;entryY=0;entryDx=0;entryDy=0;strokeWidth=2;dashed=1;dashPattern=1 1;" edge="1" parent="1" source="zBajbP6qu9b_NIQNirfu-9" target="frIzDJCanj5uJxa8QT5g-58">
          <mxGeometry relative="1" as="geometry" />
        </mxCell>
        <mxCell id="frIzDJCanj5uJxa8QT5g-90" value="&lt;font style=&quot;font-size: 18px;&quot;&gt;forward request&lt;/font&gt;" style="edgeLabel;html=1;align=center;verticalAlign=middle;resizable=0;points=[];labelBackgroundColor=none;fontSize=18;" vertex="1" connectable="0" parent="frIzDJCanj5uJxa8QT5g-89">
          <mxGeometry x="-0.0822" y="-1" relative="1" as="geometry">
            <mxPoint x="76" y="29" as="offset" />
          </mxGeometry>
        </mxCell>
        <mxCell id="zBajbP6qu9b_NIQNirfu-9" value="" style="shape=image;verticalLabelPosition=bottom;verticalAlign=top;imageAspect=0;aspect=fixed;image=data:image/svg+xml,PHN2ZyB4bWxucz0iaHR0cDovL3d3dy53My5vcmcvMjAwMC9zdmciIHZpZXdCb3g9IjAgMCA0OCA0OCI+PGRlZnM+PHN0eWxlPi5uZ2lueHByb3h5bWFuYWdlcl9zdmdfX2Nscy0xe2ZpbGw6I2ZhYTQyZn0ubmdpbnhwcm94eW1hbmFnZXJfc3ZnX19jbHMtMSwubmdpbnhwcm94eW1hbmFnZXJfc3ZnX19jbHMtMTEsLm5naW54cHJveHltYW5hZ2VyX3N2Z19fY2xzLTEzLC5uZ2lueHByb3h5bWFuYWdlcl9zdmdfX2Nscy0xNSwubmdpbnhwcm94eW1hbmFnZXJfc3ZnX19jbHMtMjQsLm5naW54cHJveHltYW5hZ2VyX3N2Z19fY2xzLTI1LC5uZ2lueHByb3h5bWFuYWdlcl9zdmdfX2Nscy0yNiwubmdpbnhwcm94eW1hbmFnZXJfc3ZnX19jbHMtNCwubmdpbnhwcm94eW1hbmFnZXJfc3ZnX19jbHMtNSwubmdpbnhwcm94eW1hbmFnZXJfc3ZnX19jbHMtNiwubmdpbnhwcm94eW1hbmFnZXJfc3ZnX19jbHMtNywubmdpbnhwcm94eW1hbmFnZXJfc3ZnX19jbHMtOCwubmdpbnhwcm94eW1hbmFnZXJfc3ZnX19jbHMtOXtmaWxsLXJ1bGU6ZXZlbm9kZH0ubmdpbnhwcm94eW1hbmFnZXJfc3ZnX19jbHMtNHtmaWxsOiNmMTU5MzN9Lm5naW54cHJveHltYW5hZ2VyX3N2Z19fY2xzLTV7ZmlsbDojZjM3MTMyfS5uZ2lueHByb3h5bWFuYWdlcl9zdmdfX2Nscy02e2ZpbGw6I2Q2ZTA0Mn0ubmdpbnhwcm94eW1hbmFnZXJfc3ZnX19jbHMtN3tmaWxsOiNmY2VhM2J9Lm5naW54cHJveHltYW5hZ2VyX3N2Z19fY2xzLTh7ZmlsbDojZTIyNTc0fS5uZ2lueHByb3h5bWFuYWdlcl9zdmdfX2Nscy05e2ZpbGw6I2VmMzgzOX0ubmdpbnhwcm94eW1hbmFnZXJfc3ZnX19jbHMtMTF7ZmlsbDojZmZjZjI5fS5uZ2lueHByb3h5bWFuYWdlcl9zdmdfX2Nscy0xM3tmaWxsOiNjYzMxOTJ9Lm5naW54cHJveHltYW5hZ2VyX3N2Z19fY2xzLTE1e2ZpbGw6IzliMzk5NX0ubmdpbnhwcm94eW1hbmFnZXJfc3ZnX19jbHMtMjR7ZmlsbDojYjI2M2E3fS5uZ2lueHByb3h5bWFuYWdlcl9zdmdfX2Nscy0yNXtmaWxsOiM2YjI5N2F9Lm5naW54cHJveHltYW5hZ2VyX3N2Z19fY2xzLTI2e2ZpbGw6Izc4MmE4Zn08L3N0eWxlPjwvZGVmcz48cGF0aCBkPSJtMy4zNTEgMzUuOTE1LS4xNzEtLjA4NlYzNmwuMTcxLjA4NnoiIGNsYXNzPSJuZ2lueHByb3h5bWFuYWdlcl9zdmdfX2Nscy0xIi8+PHBhdGggZD0iTTMuMzYgNTg1LjY4VjUyNy41TDAgNTI1Ljg0djYyLjA4eiIgc3R5bGU9ImZpbGw6I2RkYjAyYTtmaWxsLXJ1bGU6ZXZlbm9kZCIgdHJhbnNmb3JtPSJ0cmFuc2xhdGUoMy4xOCkgc2NhbGUoLjA1MTA4KSIvPjxwYXRoIGQ9Im00My43IDYwOS4xOC00MC4zNC0yMy41TDAgNTg3LjkydjExMy41NmwzLjM2IDEuNjggNDAuMzQtMjMuNXoiIHN0eWxlPSJmaWxsOiNjNDc3Mjg7ZmlsbC1ydWxlOmV2ZW5vZGQiIHRyYW5zZm9ybT0idHJhbnNsYXRlKDMuMTgpIHNjYWxlKC4wNTEwOCkiLz48cGF0aCBkPSJtOC41MzEgMzguODg2IDIuNTc2IDEuNTE0di4xNzJMOC4zNiAzOXoiIGNsYXNzPSJuZ2lueHByb3h5bWFuYWdlcl9zdmdfX2Nscy00Ii8+PHBhdGggZD0ibTUuNDEyIDM0LjcxNC0yLjA2IDEuMnYuMTcyTDguMzYgMzlsLjE3MS0uMTE0di0yLjM3MXoiIGNsYXNzPSJuZ2lueHByb3h5bWFuYWdlcl9zdmdfX2Nscy01Ii8+PHBhdGggZD0iTTMuMzUxIDIwLjk3MnYtM2wtLjE3MS0uMDg3djMuMTczeiIgY2xhc3M9Im5naW54cHJveHltYW5hZ2VyX3N2Z19fY2xzLTYiLz48cGF0aCBkPSJtMy4xOCAyNi44NTguMTcuMDg1IDEuODA0LTEuMDI5QTE0LjEzIDE0LjEzIDAgMCAxIDUuMDQgMjRjMC0uNjU4LjA1Ny0xLjM0NC4xMTQtMkwzLjM1IDIwLjk3bC0uMTcxLjA4NnoiIGNsYXNzPSJuZ2lueHByb3h5bWFuYWdlcl9zdmdfX2Nscy03Ii8+PHBhdGggZD0ibTMuMzUgMjkuOTQzIDIuMDYyIDEuMTcxIDMuMTItMS43NzF2LTIuNGwtMS41MTgtLjg4NmMuMDI5LjQzLjExNS44NTcuMiAxLjI4NmwtMS42Ni45N2ExNC4wMzQgMTQuMDM0IDAgMCAxLS40LTIuNEwzLjM1IDI2Ljk0eiIgY2xhc3M9Im5naW54cHJveHltYW5hZ2VyX3N2Z19fY2xzLTEiLz48cGF0aCBkPSJNOC41MzEgMzguODg2di0yLjM3MWwuODMtLjQ4Ni0uMDI4LS4wMjhjLjQuNDg1LjgzLjk0MiAxLjI1OSAxLjM3YTE5LjI1IDE5LjI1IDAgMCAwIDIuMzE3IDEuOTcyTDExLjEwNiA0MC40em0zLjA5LTQuMTcxIDIuMDkgMS4ydjEuNzQyYTEzLjY5MiAxMy42OTIgMCAwIDEtMS44MDMtMS41NzEgMTAuMzEgMTAuMzEgMCAwIDEtLjk0NS0xeiIgY2xhc3M9Im5naW54cHJveHltYW5hZ2VyX3N2Z19fY2xzLTQiLz48cGF0aCBkPSJtMTguODkxIDQ0Ljg1Ny0yLjYwNC0xLjQ4NS0uMTQzLjA4NiAyLjc0NyAxLjZ6IiBjbGFzcz0ibmdpbnhwcm94eW1hbmFnZXJfc3ZnX19jbHMtOCIvPjxwYXRoIGQ9Im0xNi4xNDQgNDMuNDU4LjE0My0uMDg2di0yLjA4NmExOC4wODcgMTguMDg3IDAgMCAxLTMuMzc4LTEuOTQxbC0xLjgwMyAxLjA1N3YuMTcyeiIgY2xhc3M9Im5naW54cHJveHltYW5hZ2VyX3N2Z19fY2xzLTkiLz48cGF0aCBkPSJNMy4zNiAyMzQuOTR2LTEuNjdMMCAyMzQuOTR2MS42OHoiIHN0eWxlPSJmaWxsOiNiYmQ2NGI7ZmlsbC1ydWxlOmV2ZW5vZGQiIHRyYW5zZm9ybT0idHJhbnNsYXRlKDMuMTgpIHNjYWxlKC4wNTEwOCkiLz48cGF0aCBkPSJNNS45MjcgMTMuNDg2IDMuMzUgMTJsLS4xNzEuMDg2djUuOGwuMTcxLjA4NiAyLjU3Ni0xLjQ4NnoiIGNsYXNzPSJuZ2lueHByb3h5bWFuYWdlcl9zdmdfX2Nscy02Ii8+PHBhdGggZD0ibTMuMzUgMjAuOTcgMS44MDQgMS4wMjhBMTkuNTQgMTkuNTQgMCAwIDEgNi40NyAxNi44bC0uNTQ0LS4zMTQtMi41NzYgMS40ODZ6bTMuNjY0Ljg1NyAxLjUxNy0uODU3di0yLjk5OGwtLjQ2LS4yNThhMTYuNzUzIDE2Ljc1MyAwIDAgMC0xLjA1OSA0LjExNXoiIGNsYXNzPSJuZ2lueHByb3h5bWFuYWdlcl9zdmdfX2Nscy0xMSIvPjxwYXRoIGQ9Im03LjAxNCAyNi4wNTcgMS41MTcuODg2IDIuNTc1LTEuNDg2di0zTDguNTMxIDIwLjk3bC0xLjUxNy44NTdBMTguMTQ0IDE4LjE0NCAwIDAgMCA2Ljg3IDI0YTE2LjI5MyAxNi4yOTMgMCAwIDAgLjE0MyAyLjA1N3oiIGNsYXNzPSJuZ2lueHByb3h5bWFuYWdlcl9zdmdfX2Nscy0xIi8+PHBhdGggZD0iTTE2LjI4NyAzMS43NDNWMzQuNGwtMi41NzYgMS41MTUtMi4wOS0xLjJ2LTMuNmwxLjgwNC0xLjAzeiIgY2xhc3M9Im5naW54cHJveHltYW5hZ2VyX3N2Z19fY2xzLTQiLz48cGF0aCBkPSJtMjkxLjUgODgyLjYgNTEgMjkuMDggNTEtMjkuMDh2LTExLjc1Yy0zNS44Ny01LTcwLjA1LTE0LjU0LTEwMi0yOS4xem0xMDItNDguMTJ2LTEwLjA3bC01MS0yOS42NC0yOS43MSAxNy4zNGEzMTguNzggMzE4Ljc4IDAgMCAwIDgwLjcgMjIuMzd6IiBzdHlsZT0iZmlsbDojZWU0MzhkO2ZpbGwtcnVsZTpldmVub2RkIiB0cmFuc2Zvcm09InRyYW5zbGF0ZSgxLjM5OCAtMS43MDcpIHNjYWxlKC4wNTEwOCkiLz48cGF0aCBkPSJtMTEuMTA3IDI1LjQ1Ny0yLjU3NiAxLjQ4NnYyLjRsMy4wOSAxLjc3MSAxLjgwNC0xLjAyOXYtMy4zMTR6IiBjbGFzcz0ibmdpbnhwcm94eW1hbmFnZXJfc3ZnX19jbHMtNSIvPjxwYXRoIGQ9Im0yMS40OTYgNDMuMzcyLTIuNjA1IDEuNDg1di4ybDUuMDA5IDIuODg3LjE3Mi0uMDg2di0zeiIgY2xhc3M9Im5naW54cHJveHltYW5hZ2VyX3N2Z19fY2xzLTEzIi8+PHBhdGggZD0ibTMxMi43OCA4MTIuMTEgMjkuNzEtMTcuMzR2LTU4LjE4bC01MS0yOS42Ni01MC40NCAyOS42NnYzNC4xMmEzMTUuNDcgMzE1LjQ3IDAgMCAwIDcxLjcyIDQxLjR6IiBzdHlsZT0iZmlsbDojYmQyMDI1O2ZpbGwtcnVsZTpldmVub2RkIiB0cmFuc2Zvcm09InRyYW5zbGF0ZSgxLjM5OCAtMS43MDcpIHNjYWxlKC4wNTEwOCkiLz48cGF0aCBkPSJtMjQuMDcyIDQ3Ljg1OC0uMTcyLjA4Ni4xMTQuMDU2LjE0My0uMDg1eiIgY2xhc3M9Im5naW54cHJveHltYW5hZ2VyX3N2Z19fY2xzLTE1Ii8+PHBhdGggZD0ibTEwNC43OCAxNzYuMi0xLjY4LS41Ni05OS43NCA1Ny42M3YxLjY3bDUwLjQzIDI5LjEgNTAuOTktMjkuMXoiIHN0eWxlPSJmaWxsOiNmMWViNTk7ZmlsbC1ydWxlOmV2ZW5vZGQiIHRyYW5zZm9ybT0idHJhbnNsYXRlKDMuMTgpIHNjYWxlKC4wNTEwOCkiLz48cGF0aCBkPSJtNS45MjcgMTYuNDg2LjU0NC4zMTRjLjY1OC0xLjYzIDEuNTQ1LTMuMTE2IDIuNjA1LTQuNDg2TDguNTMyIDEybC0yLjYwNSAxLjQ4NnptMi4xNDUgMS4yMjYuNDYuMjU4IDIuNTc1LTEuNDg1di0yLjk5OWwtLjQyOS0uMjI5YTE3LjY4MSAxNy42ODEgMCAwIDAtMi42MDUgNC40NTd6IiBjbGFzcz0ibmdpbnhwcm94eW1hbmFnZXJfc3ZnX19jbHMtNyIvPjxwYXRoIGQ9Ik0xMy40MjUgMjEuMTE0di0zLjJsLjA4Ni0uMDU3LTIuNDA0LTEuMzcxLTIuNTc2IDEuNDg2djNsMi41NzYgMS40ODV6IiBjbGFzcz0ibmdpbnhwcm94eW1hbmFnZXJfc3ZnX19jbHMtMSIvPjxwYXRoIGQ9Ik0yNC4wNzIgMzguODg2di0yLjc0M2wtLjA1OC4wMjktMi44MDQtMS42LTIuMzE5IDEuMzQzdjIuOTcxbDIuNjA1IDEuNTE0eiIgY2xhc3M9Im5naW54cHJveHltYW5hZ2VyX3N2Z19fY2xzLTgiLz48cGF0aCBkPSJNMjAwLjU5IDUyNC4xNVY0MTMuMzlsLTQ1LjM4IDI2LjI5djU4Ljc0eiIgc3R5bGU9ImZpbGw6I2Y3OTc1ZjtmaWxsLXJ1bGU6ZXZlbm9kZCIgdHJhbnNmb3JtPSJ0cmFuc2xhdGUoMy4xOCkgc2NhbGUoLjA1MTA4KSIvPjxwYXRoIGQ9Im0yMS40OTYgNDMuMzcyIDIuNTc2IDEuNDg1IDIuNjA1LTEuNDg1di0uNjI5YTIwLjc4OCAyMC43ODggMCAwIDEtMi42NjMuMTcyIDIzLjg2OCAyMy44NjggMCAwIDEtMi41MTgtLjE0M3ptNS4xOC0yLjQ4NlY0MC40bC0yLjYwNS0xLjUxNC0yLjU3NiAxLjUxNHYuNTE0YTE4LjA5IDE4LjA5IDAgMCAwIDIuNTE4LjE3MiAxNi43NCAxNi43NCAwIDAgMCAyLjY2Mi0uMnoiIGNsYXNzPSJuZ2lueHByb3h5bWFuYWdlcl9zdmdfX2Nscy0xMyIvPjxwYXRoIGQ9Im0zMDcuNjIgNzAzLjE2IDQ1LjM5LTI2LjI5LTk2LjM4LTU1LjM5djUyLjAyeiIgc3R5bGU9ImZpbGw6I2QzMWYyNjtmaWxsLXJ1bGU6ZXZlbm9kZCIgdHJhbnNmb3JtPSJ0cmFuc2xhdGUoMy4xOCkgc2NhbGUoLjA1MTA4KSIvPjxwYXRoIGQ9Im01MTAuNDUgODc4LjI1LTUwLjQxLTI5LjA4LTUwLjk5IDI5LjA4djU4Ljc0bDEuNjYgMS4xMiA5OS43NC01Ny42MnoiIHN0eWxlPSJmaWxsOiM3MzIwNmE7ZmlsbC1ydWxlOmV2ZW5vZGQiIHRyYW5zZm9ybT0idHJhbnNsYXRlKDMuMTgpIHNjYWxlKC4wNTEwOCkiLz48cGF0aCBkPSJtOC41MzEgOSAyLjU3Ni0xLjQ4NnYtLjA4Nkw4LjQ0NSA4Ljk3MXoiIGNsYXNzPSJuZ2lueHByb3h5bWFuYWdlcl9zdmdfX2Nscy02Ii8+PHBhdGggZD0ibTguNTMxIDEyIC41NDQuMzE0Yy40ODYtLjYgMS4wMDItMS4xNDIgMS41MTctMS42ODVBMTguMDkgMTguMDkgMCAwIDEgMTIuOTk2IDguNmwtMS44OS0xLjA4NUw4LjUzMSA5em0yLjE0NSAxLjI1Ny40My4yM0wxMy43MSAxMnYtMS42NTdhMTMuNTQgMTMuNTQgMCAwIDAtMS44MDMgMS41NzJjLS40MjkuNDI4LS44My44NTYtMS4yMyAxLjM0MnoiIGNsYXNzPSJuZ2lueHByb3h5bWFuYWdlcl9zdmdfX2Nscy0xMSIvPjxwYXRoIGQ9Ik0xNi4yODcgMTMuNDg2IDEzLjcxMSAxMmwtMi42MDQgMS40ODZ2M2wyLjQwNCAxLjM3MSAyLjc3Ni0xLjZ6IiBjbGFzcz0ibmdpbnhwcm94eW1hbmFnZXJfc3ZnX19jbHMtMSIvPjxwYXRoIGQ9Im01NjEuNDQgODQ5LjE3LTUwLjk5IDI5LjA4djIuMjRsNTIuNjgtMzAuMjJ6IiBzdHlsZT0iZmlsbDojODUzYTk2O2ZpbGwtcnVsZTpldmVub2RkIiB0cmFuc2Zvcm09InRyYW5zbGF0ZSgzLjE4KSBzY2FsZSguMDUxMDgpIi8+PHBhdGggZD0ibTI5LjI1MSAzNS45MTUtMi4zNzQtMS40LTIuODA1IDEuNjI4djIuNzQzbDIuNjA1IDEuNTE0IDIuNTc0LTEuNTE0eiIgY2xhc3M9Im5naW54cHJveHltYW5hZ2VyX3N2Z19fY2xzLTEzIi8+PHBhdGggZD0ibTI2LjY3NiA0My4zNzIgMi41NzUgMS40ODUgMi42MDUtMS40ODV2LTIuMTQ1YTE5LjAwNCAxOS4wMDQgMCAwIDEtNS4xOCAxLjUxNnptNC4wMzUtMy42MjktMS40Ni0uODU3LTIuNTc1IDEuNTE0di40ODZjMS40MDMtLjIyOSAyLjc3NS0uNiA0LjAzNS0xLjE0M3oiIGNsYXNzPSJuZ2lueHByb3h5bWFuYWdlcl9zdmdfX2Nscy0xNSIvPjxwYXRoIGQ9Im0xMS4xMDYgNy41MTQgMS44OSAxLjA4NmExOC43ODkgMTguNzg5IDAgMCAxIDMuMjkyLTEuODg2di0yLjJsLS4wNTgtLjAyOS01LjEyMyAyLjk0M3oiIGNsYXNzPSJuZ2lueHByb3h5bWFuYWdlcl9zdmdfX2Nscy0xMSIvPjxwYXRoIGQ9Im0yNDEuMDYgMjY4LjM3IDUwLjQ0IDI5LjEgNTEtMjkuMXYtNTguNzRMMzE1IDE5NGMtMjYuOSAxMC42NC01MS41NSAyNS4xOC03NCA0MnoiIHN0eWxlPSJmaWxsOiNkOThhMjY7ZmlsbC1ydWxlOmV2ZW5vZGQiIHRyYW5zZm9ybT0idHJhbnNsYXRlKDEuMzk4IC0xLjcwNykgc2NhbGUoLjA1MTA4KSIvPjxwYXRoIGQ9Im01OTYuMzEgODgyLjYgMS42OCAxLjExIDk5Ljc0LTU3LjYxdi0xLjY5bC0zNy0yMS4yNWEzODguMSAzODguMSAwIDAgMS02NC40NCAzNy40OHoiIHN0eWxlPSJmaWxsOiM4ZjRmOWY7ZmlsbC1ydWxlOmV2ZW5vZGQiIHRyYW5zZm9ybT0idHJhbnNsYXRlKDEuMzk4IC0xLjcwNykgc2NhbGUoLjA1MTA4KSIvPjxwYXRoIGQ9Im0xOC44OTEgMTItMi42MDQgMS40ODZ2Mi43NzFsNS4wMDktMi44ODZ6IiBjbGFzcz0ibmdpbnhwcm94eW1hbmFnZXJfc3ZnX19jbHMtNSIvPjxwYXRoIGQ9Im01MTAuNDUgNzAzLjE2IDUwLjk5LTI5LjY2di01My43bC05Ny40OCA1NS45NHoiIHN0eWxlPSJmaWxsOiNkMjRiOWI7ZmlsbC1ydWxlOmV2ZW5vZGQiIHRyYW5zZm9ybT0idHJhbnNsYXRlKDMuMTgpIHNjYWxlKC4wNTEwOCkiLz48cGF0aCBkPSJtMjkuMjUxIDM4Ljg4NiAxLjQ2Ljg1N2ExNi4xNTIgMTYuMTUyIDAgMCAwIDMuNzItMi4ydi0xLjYyOEwzMS44NTYgMzQuNGwtMi42MDUgMS41MTV6IiBjbGFzcz0ibmdpbnhwcm94eW1hbmFnZXJfc3ZnX19jbHMtMjQiLz48cGF0aCBkPSJtMTYuMjg3IDQuNTE0IDIuNjA0LTEuNDg3di0uMDg1TDE2LjIzIDQuNDg1eiIgY2xhc3M9Im5naW54cHJveHltYW5hZ2VyX3N2Z19fY2xzLTExIi8+PHBhdGggZD0ibTE3LjQ4NyA4LjIwMSAxLjQwMy44IDIuMDg4LTEuMTcxdi0uNjU5bC4xMTUtLjAyOGExNi45MTYgMTYuOTE2IDAgMCAwLTMuNjA2IDEuMDU4em0zLjQ5MS0zLjk3MS0yLjA4Ny0xLjIwMi0yLjYwNCAxLjQ4NnYyLjJhMTkuNzk1IDE5Ljc5NSAwIDAgMSA0LjY5Mi0xLjR6IiBjbGFzcz0ibmdpbnhwcm94eW1hbmFnZXJfc3ZnX19jbHMtMSIvPjxwYXRoIGQ9Im0zNS4xNDcgMzkuMzE1IDEuODkgMS4wODUgMi42MDUtMS41MTR2LTIuMzcxbC0zLjEyMS0xLjgtMi4wOSAxLjJ2MS42MjhjLjM0NS0uMjI5LjYzLS40ODYuOTQ2LS43NDNsMS42NTkuOTQzYTE5LjU4MiAxOS41ODIgMCAwIDEtMS44OSAxLjU3MnoiIGNsYXNzPSJuZ2lueHByb3h5bWFuYWdlcl9zdmdfX2Nscy0yNSIvPjxwYXRoIGQ9Ik0zOS42NCAzOC44ODYgMzcuMDM3IDQwLjR2LjA4NmwyLjY5LTEuNTQzeiIgY2xhc3M9Im5naW54cHJveHltYW5hZ2VyX3N2Z19fY2xzLTI2Ii8+PHBhdGggZD0ibTI0LjAxNCAxMS44MjkuMDU4LjAyOFY5LjU5OWwtMy4wOTEtMS43NzFMMTguODkgOXYzbDIuNDA1IDEuMzd6IiBjbGFzcz0ibmdpbnhwcm94eW1hbmFnZXJfc3ZnX19jbHMtNSIvPjxwYXRoIGQ9Ik0zNi41MiAzNC43MTR2LTMuNmwtMS45NDUtMS4xMTN2LjA4NGwtMi43MiAxLjU3MlYzNC40bDIuNTc3IDEuNTE1eiIgY2xhc3M9Im5naW54cHJveHltYW5hZ2VyX3N2Z19fY2xzLTE1Ii8+PHBhdGggZD0iTTI0LjA3MiAyLjQyOFYuMDU3TDI0LjAxNCAwbC01LjEyMyAyLjk0MnYuMDg1bDIuMDkgMS4yeiIgY2xhc3M9Im5naW54cHJveHltYW5hZ2VyX3N2Z19fY2xzLTEiLz48cGF0aCBkPSJtMjQuMDcyIDkuNiAzLjEyLTEuNzcyTDI5LjI1MSA5djNsLTIuNDYyIDEuNDI4LTIuNzE4LTEuNTcxeiIgY2xhc3M9Im5naW54cHJveHltYW5hZ2VyX3N2Z19fY2xzLTQiLz48cGF0aCBkPSJtNDQuODIgMzUuOTE1LTIuMDg5LTEuMi0zLjA5IDEuOHYyLjM3MWwuMDg1LjA1N0w0NC44MjEgMzZ6IiBjbGFzcz0ibmdpbnhwcm94eW1hbmFnZXJfc3ZnX19jbHMtMjYiLz48cGF0aCBkPSJNNjYyLjg3IDQ5OC40MnYtNTguNzRsLTQ4LjE4LTI3Ljk3djExNC4xM3oiIHN0eWxlPSJmaWxsOiNhMDE2NjQ7ZmlsbC1ydWxlOmV2ZW5vZGQiIHRyYW5zZm9ybT0idHJhbnNsYXRlKDMuMTgpIHNjYWxlKC4wNTEwOCkiLz48cGF0aCBkPSJtNTYxLjQ0IDI2NC4wNC01MC45OS0yOS4xLTQ4LjE4IDI3Ljk3IDk5LjE3IDU3LjA1eiIgc3R5bGU9ImZpbGw6I2MwMjAyNjtmaWxsLXJ1bGU6ZXZlbm9kZCIgdHJhbnNmb3JtPSJ0cmFuc2xhdGUoMy4xOCkgc2NhbGUoLjA1MTA4KSIvPjxwYXRoIGQ9Ik0zOS42NCAyOS4zNDN2LTIuNGwtMi42MDQtMS40ODYtMi40NiAxLjR2My4xNDRsMS45NDUgMS4xMTN6IiBjbGFzcz0ibmdpbnhwcm94eW1hbmFnZXJfc3ZnX19jbHMtMTUiLz48cGF0aCBkPSJtMjcuMTkyIDQuMjI4IDIuMDYtMS4yIDIuNjA1IDEuNDg2djIuMjU3YTE3LjI1NCAxNy4yNTQgMCAwIDAtMi40MDUtLjg4NlY3LjhhOS41NTEgOS41NTEgMCAwIDEgMS4xNzUuNDI4TDI5LjI1MyA5bC0yLjA2MS0xLjE3MnoiIGNsYXNzPSJuZ2lueHByb3h5bWFuYWdlcl9zdmdfX2Nscy00Ii8+PHBhdGggZD0iTTc1NS40NiA2MjNhMTcuNTggMTcuNTggMCAwIDAgMi4yNC01LjYxIDE3LjU4IDE3LjU4IDAgMCAxLTIuMjQgNS42MXptMy4zNS03Ljg1YTMxOS4xNyAzMTkuMTcgMCAwIDAgMTYuMjYtNjkuOTFsLTI2LjM1IDE1LjY1djQ3bDEwLjY2IDYuMTZ6bTUwLjQzIDI3LjQyIDQwLjkxLTIzLjV2LTU4LjE0TDgxMiA1MzkuMTJhMzc1LjU0IDM3NS41NCAwIDAgMS0yMS44NSA5NGwuNTgtMS4xM3oiIHN0eWxlPSJmaWxsOiM5MDUxYTA7ZmlsbC1ydWxlOmV2ZW5vZGQiIHRyYW5zZm9ybT0idHJhbnNsYXRlKDEuMzk4IC0xLjcwNykgc2NhbGUoLjA1MTA4KSIvPjxwYXRoIGQ9Im02MTEuODggMjM0Ljk0LTUwLjQ0IDI5LjF2NTUuOTJsNTIuNjggMzAuNzkgNDguNzUtMjcuOTh2LTU4LjczeiIgc3R5bGU9ImZpbGw6I2IwMWI0YTtmaWxsLXJ1bGU6ZXZlbm9kZCIgdHJhbnNmb3JtPSJ0cmFuc2xhdGUoMy4xOCkgc2NhbGUoLjA1MTA4KSIvPjxwYXRoIGQ9Ik01MTAuNDUgNTkuMjcgNDA5LjA1IDEuMTF2NDYuNDJsNjEuMDcgMzUuMjR6IiBzdHlsZT0iZmlsbDojYzU0NjI3O2ZpbGwtcnVsZTpldmVub2RkIiB0cmFuc2Zvcm09InRyYW5zbGF0ZSgzLjE4KSBzY2FsZSguMDUxMDgpIi8+PHBhdGggZD0iTTcxMy44NiA0MTAuNnYtNTguNzRsLTUwLjk5LTI5LjA5LTQ4Ljc1IDI3Ljk4aC41N3Y2MC45Nmw0OC4xOCAyNy45N3oiIHN0eWxlPSJmaWxsOiNhNDE3Njg7ZmlsbC1ydWxlOmV2ZW5vZGQiIHRyYW5zZm9ybT0idHJhbnNsYXRlKDMuMTgpIHNjYWxlKC4wNTEwOCkiLz48cGF0aCBkPSJtMjkuMjUxIDEyIDIuNjA1IDEuNDg2TDM0LjQzMiAxMnYtMS41NDNhMTUuODIgMTUuODIgMCAwIDAtMy44MDYtMi4yMjlMMjkuMjUyIDl6IiBjbGFzcz0ibmdpbnhwcm94eW1hbmFnZXJfc3ZnX19jbHMtOSIvPjxwYXRoIGQ9Im0zNy4wMzYgMjUuNDU3IDIuNjA1IDEuNDg2IDEuMzQ1LS44YTE3LjQxNyAxNy40MTcgMCAwIDAgLjE0My0yLjE0NSAxOS43NzQgMTkuNzc0IDAgMCAwLS4xNDMtMi4yNTdsLTEuMzQ2LS43Ny0yLjYwNSAxLjQ4NXoiIGNsYXNzPSJuZ2lueHByb3h5bWFuYWdlcl9zdmdfX2Nscy0xNSIvPjxwYXRoIGQ9Im00Mi44NzIgMjUuODI5IDEuOTQ3IDEuMTE0VjIwLjk3bC0xLjk3NSAxLjExNEExNC4wMzggMTQuMDM4IDAgMCAxIDQyLjk2IDI0YzAgLjYyOC0uMDMgMS4yMjgtLjA4NyAxLjgyOHoiIGNsYXNzPSJuZ2lueHByb3h5bWFuYWdlcl9zdmdfX2Nscy0yNSIvPjxwYXRoIGQ9Im0zNC40MzEgMTIgMi42MDUgMS40ODYuMzE1LS4xNzJhMTQuMjI2IDE0LjIyNiAwIDAgMC0xLjIzLTEuNCAyMC4zMDkgMjAuMzA5IDAgMCAwLTEuNjktMS40NTd6bTQuNTIyLjM3MkwzOS42NCAxMlY5bC0yLjYwNS0xLjQ4Ni0xLjk0NSAxLjE0MmExOC44IDE4LjggMCAwIDEgMi4zMTcgMS45NzIgMjIuNjIyIDIyLjYyMiAwIDAgMSAxLjU0NSAxLjc0NHoiIGNsYXNzPSJuZ2lueHByb3h5bWFuYWdlcl9zdmdfX2Nscy04Ii8+PHBhdGggZD0iTTQ0LjgyIDI2Ljk0M3YzeiIgY2xhc3M9Im5naW54cHJveHltYW5hZ2VyX3N2Z19fY2xzLTI2Ii8+PHBhdGggZD0ibTM3LjAzNiAxNi40ODYgMi42MDUgMS40ODYuMzE0LS4xNzNhMTYuMjcyIDE2LjI3MiAwIDAgMC0yLjYwNS00LjQ4NWwtLjMxNC4xNzJ6bTQuNTIxLjM3Mi42Ni0uMzcydi0zTDM5LjY0IDEybC0uNjg3LjM3MmExOS40NSAxOS40NSAwIDAgMSAyLjYwNSA0LjQ4NnoiIGNsYXNzPSJuZ2lueHByb3h5bWFuYWdlcl9zdmdfX2Nscy0xMyIvPjxwYXRoIGQ9Im0zNS4wOSA4LjY1NiAxLjk0Ni0xLjE0Mi01LjE4LTN2Mi4yNTdhMTguMzk5IDE4LjM5OSAwIDAgMSAzLjIzNCAxLjg4NXoiIGNsYXNzPSJuZ2lueHByb3h5bWFuYWdlcl9zdmdfX2Nscy05Ii8+PHBhdGggZD0ibTM5LjY0IDIwLjk3IDEuMzQ2Ljc3MWExNy43NDYgMTcuNzQ2IDAgMCAwLTEuMDMxLTMuOTQzbC0uMzE1LjE3MnptMy4yMDYgMS4xMTQgMS45NzUtMS4xMTR2LTIuOTk4bC0yLjYwNS0xLjQ4Ni0uNjU5LjM3MmMuNjU5IDEuNjU3IDEuMTE2IDMuNCAxLjI4OCA1LjIyOHoiIGNsYXNzPSJuZ2lueHByb3h5bWFuYWdlcl9zdmdfX2Nscy0yNCIvPjxwYXRoIGQ9Im03NjQuMjkgMjY0LjA0IDUwLjk5LTI5LjEtMTAxLjQyLTU4Ljc0djU4Ljc0eiIgc3R5bGU9ImZpbGw6I2QxNDk5YTtmaWxsLXJ1bGU6ZXZlbm9kZCIgdHJhbnNmb3JtPSJ0cmFuc2xhdGUoMy4xOCkgc2NhbGUoLjA1MTA4KSIvPjxwYXRoIGQ9Ik00Mi4yMTYgMTMuNDg2djNsMi42MDUgMS40ODZWMTJ6IiBjbGFzcz0ibmdpbnhwcm94eW1hbmFnZXJfc3ZnX19jbHMtMTUiLz48cGF0aCBkPSJtODE1LjI4IDU4NS42OC00MC45MSAyMy41djcwLjQ4bDQwLjkxIDIzLjVWNTg2LjI0eiIgc3R5bGU9ImZpbGw6Izg1NDU5YTtmaWxsLXJ1bGU6ZXZlbm9kZCIgdHJhbnNmb3JtPSJ0cmFuc2xhdGUoMy4xOCkgc2NhbGUoLjA1MTA4KSIvPjxwYXRoIGQ9Ik0xOC44OTEgMjYuOTQzdi4yODZsLS4yNTctLjE0NFYyNi44eiIgY2xhc3M9Im5naW54cHJveHltYW5hZ2VyX3N2Z19fY2xzLTQiLz48cGF0aCBkPSJtMjEuNDk2IDI1LjQ1Ny0yLjYwNSAxLjQ4Ni0uMjU3LS4xNDN2LTUuNjg2bC4yNTctLjE0MiAyLjYwNSAxLjQ4NXoiIGNsYXNzPSJuZ2lueHByb3h5bWFuYWdlcl9zdmdfX2Nscy00Ii8+PHBhdGggZD0ibTI0LjA3MiAyOS45MTQtLjI1OC4xNzEuMi4xMTUuMjU4LS4xNzF6IiBjbGFzcz0ibmdpbnhwcm94eW1hbmFnZXJfc3ZnX19jbHMtOCIvPjxwYXRoIGQ9Im0yMS40OTYgMjUuNDU3LTIuNjA1IDEuNDg2di4yODZsNC45MjMgMi44NTYuMjU4LS4xN3YtMi45NzJ6IiBjbGFzcz0ibmdpbnhwcm94eW1hbmFnZXJfc3ZnX19jbHMtOSIvPjxwYXRoIGQ9Im01MTAuNDUgNTI3LjUtNTAuNDEtMjkuMDgtNTAuOTkgMjkuMDh2NTguMThsMy45MiAyLjI0IDk3LjQ4LTU2LjV6IiBzdHlsZT0iZmlsbDojZWUzZjhhO2ZpbGwtcnVsZTpldmVub2RkIiB0cmFuc2Zvcm09InRyYW5zbGF0ZSgzLjE4KSBzY2FsZSguMDUxMDgpIi8+PHBhdGggZD0ibTI2LjY3NyAyMi40NTctMi42MDUtMS40ODUtMi41NzYgMS40ODV2M2wyLjU3NiAxLjQ4NiAyLjYwNS0xLjQ4NnoiIGNsYXNzPSJuZ2lueHByb3h5bWFuYWdlcl9zdmdfX2Nscy05Ii8+PHBhdGggZD0ibTI5LjM2NyAyMS4wMjktLjExNi0uMDU3LTIuNTc0IDEuNDg1djNsMi41NzQgMS40ODYuMTE2LS4wNTd6IiBjbGFzcz0ibmdpbnhwcm94eW1hbmFnZXJfc3ZnX19jbHMtOCIvPjxwYXRoIGQ9Ik0yOS4yNTEgMjYuOTQzdi4ybC4xMTYtLjA1OHYtLjJ6IiBjbGFzcz0ibmdpbnhwcm94eW1hbmFnZXJfc3ZnX19jbHMtMTMiLz48cGF0aCBkPSJNMTguODkxIDIwLjk3MnYtLjJsLS4yNTcuMTQydi4yeiIgY2xhc3M9Im5naW54cHJveHltYW5hZ2VyX3N2Z19fY2xzLTUiLz48cGF0aCBkPSJNMjQuMDcyIDE3Ljk3MnYzbC0yLjU3NiAxLjQ4NS0yLjYwNS0xLjQ4NXYtLjJsNS4wMDktMi44ODd6IiBjbGFzcz0ibmdpbnhwcm94eW1hbmFnZXJfc3ZnX19jbHMtNCIvPjxwYXRoIGQ9Im00MDkuMDUgMzUxLjg2LTMuMzctMS42OSAyLjI0LTEuMTEgMy4zNyAxLjY5eiIgc3R5bGU9ImZpbGw6I2Y0ODA1ZjtmaWxsLXJ1bGU6ZXZlbm9kZCIgdHJhbnNmb3JtPSJ0cmFuc2xhdGUoMy4xOCkgc2NhbGUoLjA1MTA4KSIvPjxwYXRoIGQ9Im0yOS4yNTEgMjAuODU3LTUuMDY0LTIuOTQyLS4xMTUuMDU3djNsMi42MDUgMS40ODUgMi41NzQtMS40ODV6IiBjbGFzcz0ibmdpbnhwcm94eW1hbmFnZXJfc3ZnX19jbHMtOSIvPjxwYXRoIGQ9Ik0yOS4zNjcgMjEuMDI5di0uMTE1bC0uMTE2LS4wNTd2LjExNXoiIGNsYXNzPSJuZ2lueHByb3h5bWFuYWdlcl9zdmdfX2Nscy04Ii8+PHBhdGggZD0ibTI1Ljg0NSA1LTEuNzczLTEuMDI4TDIyLjI5NyA1djIuMDU3bDEuNzc1IDEuMDI5IDEuNzczLTEuMDN6IiBjbGFzcz0ibmdpbnhwcm94eW1hbmFnZXJfc3ZnX19jbHMtNSIvPjxwYXRoIGQ9Im03NDguNiA2MjQuMjctMzQuNzQtMjAuMTItMzUuMzEgMjAuMTJ2NDAuMjhsMzUuMzEgMjAuMTUgMzQuNzQtMjAuMTV6IiBzdHlsZT0iZmlsbDojNTUyMjYzO2ZpbGwtcnVsZTpldmVub2RkIiB0cmFuc2Zvcm09InRyYW5zbGF0ZSgzLjE4KSBzY2FsZSguMDUxMDgpIi8+PHBhdGggZD0iTTEwLjMwNiAzMS44ODUgOC41MyAzMC44NThsLTEuNzc0IDEuMDI3djIuMDU4bDEuNzc0IDEuMDI5IDEuNzc1LTEuMDN6IiBjbGFzcz0ibmdpbnhwcm94eW1hbmFnZXJfc3ZnX19jbHMtNSIvPjwvc3ZnPg==" parent="1" vertex="1">
          <mxGeometry x="385.5" y="470" width="80" height="80" as="geometry" />
        </mxCell>
        <mxCell id="frIzDJCanj5uJxa8QT5g-14" value="&lt;font style=&quot;font-size: 20px;&quot;&gt;&lt;b style=&quot;font-size: 20px;&quot;&gt;proxy-network&lt;/b&gt;&lt;/font&gt;" style="text;strokeColor=none;align=center;fillColor=none;html=1;verticalAlign=middle;whiteSpace=wrap;rounded=0;fontSize=20;" vertex="1" parent="1">
          <mxGeometry x="140" y="510" width="170" height="50" as="geometry" />
        </mxCell>
        <mxCell id="frIzDJCanj5uJxa8QT5g-59" style="rounded=0;orthogonalLoop=1;jettySize=auto;html=1;exitX=1;exitY=0.75;exitDx=0;exitDy=0;strokeWidth=2;dashed=1;dashPattern=1 1;entryX=0;entryY=0;entryDx=0;entryDy=0;" edge="1" parent="1" source="frIzDJCanj5uJxa8QT5g-18" target="frIzDJCanj5uJxa8QT5g-58">
          <mxGeometry relative="1" as="geometry" />
        </mxCell>
        <mxCell id="frIzDJCanj5uJxa8QT5g-60" value="update" style="edgeLabel;html=1;align=center;verticalAlign=middle;resizable=0;points=[];fontSize=18;labelBackgroundColor=none;" vertex="1" connectable="0" parent="frIzDJCanj5uJxa8QT5g-59">
          <mxGeometry x="-0.0594" y="-1" relative="1" as="geometry">
            <mxPoint x="-24" y="15" as="offset" />
          </mxGeometry>
        </mxCell>
        <mxCell id="frIzDJCanj5uJxa8QT5g-18" value="watchtower" style="shape=image;verticalLabelPosition=bottom;verticalAlign=top;imageAspect=0;aspect=fixed;image=data:image/svg+xml,PHN2ZyB4bWxucz0iaHR0cDovL3d3dy53My5vcmcvMjAwMC9zdmciIHhtbDpzcGFjZT0icHJlc2VydmUiIGZpbGwtcnVsZT0iZXZlbm9kZCIgc3Ryb2tlLWxpbmVjYXA9InJvdW5kIiBzdHJva2UtbGluZWpvaW49InJvdW5kIiBzdHJva2UtbWl0ZXJsaW1pdD0iMS41IiBjbGlwLXJ1bGU9ImV2ZW5vZGQiIHZpZXdCb3g9IjAgMCA0OCA0OCI+PGcgdHJhbnNmb3JtPSJ0cmFuc2xhdGUoLTMuODczIC0yMy4wNjkpIHNjYWxlKC4wMDYwMSkiPjxjaXJjbGUgY3g9IjQ2MzcuMiIgY3k9Ijc4MzAuOSIgcj0iMzk0OC43IiBmaWxsPSJub25lIi8+PGNsaXBQYXRoIGlkPSJ3YXRjaHRvd2VyX3N2Z19fYSI+PGNpcmNsZSBjeD0iNDYzNy4yIiBjeT0iNzgzMC45IiByPSIzOTQ4LjciLz48L2NsaXBQYXRoPjxnIGNsaXAtcGF0aD0idXJsKCN3YXRjaHRvd2VyX3N2Z19fYSkiPjxjaXJjbGUgY3g9IjQ2MzcuMiIgY3k9Ijc4MzAuOSIgcj0iMzk0OC43IiBmaWxsPSIjNDA2MTcwIiB0cmFuc2Zvcm09Im1hdHJpeCgxLjExODUgMCAwIDEuMjI5MSAtNTQ5LjQ4IC0xMzk4LjYpIi8+PHBhdGggZmlsbD0iI2FjYmZjNyIgZD0iTTU1Ni40NTQgNjc5MS40MjIgNTI5LjY4MSA5MTU2LjE5bDM4MzIuMDM0LTc3NC4wOTMgNC40NS02MDQuMDEzeiIvPjxlbGxpcHNlIGN4PSI1MjAzLjIiIGN5PSI3Mzg5LjMiIGZpbGw9IiNhY2JmYzciIHJ4PSIxNzMuODEiIHJ5PSIzOTEuNjEiIHRyYW5zZm9ybT0ibWF0cml4KC0uNTYxMzYgMCAwIC43NzA0NSA3MjgwLjQ1NiAyMzg2LjMxNikiLz48cGF0aCBmaWxsPSIjYWNiZmM3IiBkPSJtODgxMS40NTggNjc5MS4zOTkgMjYuNzczIDIzNjQuNzY4LTM4MzIuMDM0LTc3NC4wOTMtNC40NS02MDQuMDEzeiIvPjxlbGxpcHNlIGN4PSI1MjAzLjIiIGN5PSI3Mzg5LjMiIGZpbGw9IiNhY2JmYzciIHJ4PSIxNzMuODEiIHJ5PSIzOTEuNjEiIHRyYW5zZm9ybT0ibWF0cml4KC41NjEzNiAwIDAgLjc3MDQ1IDIwODcuNzU2IDIzODYuMjkzKSIvPjxwYXRoIGZpbGw9IiMwMDMzNDMiIGQ9Ik01MTM4Ljc3OCA4ODI2LjI5OWgtOTAyLjA3Mkw0MzQ3LjY4IDc2MjYuOThoNjgwLjE0eiIvPjxwYXRoIGZpbGw9IiNmZmYiIGQ9Ik02Mjg2LjQ1NCA3MjIxLjczN0gzMDc3LjA2MnYyMDE5LjY2OWgzMjA5LjM5MnptLTgzLjg4MiAxMTMuNTM4SDUyOTQuMDdWODc2NC4zMmg5MDguNTAyem0tMjEzMS4xNTIgMGgtOTA4LjV2MTQyNy4yNWg5MDguNTAxem0xMTI5LjM5NSAwSDQxNjUuODUydjE0MjcuMjVoMTAzNC45NjN6Ii8+PHBhdGggZmlsbD0iIzAwMzM0MyIgZD0ibTcxOTUuMDggOTMwOS4yMjQtOTAwLjU0IDQ2MC43MDggMjE2Ljc3NyAxNTAyLjA0NmMtMjIuNyAxMC4yNTctNTM4LjEzOCA0NDIuOTc0LTE4NDAuOTE4IDQ2My4zOTItMjAuODkzLjM4NC0xNS42ODctMjUwNy41MzItMTUuNjg3LTI1MDcuNTMybDI1MzguODM4IDExLjc4MnoiLz48cGF0aCBmaWxsPSIjMDAzMzQzIiBkPSJtMjE2Mi45NTUgOTMwOS43NTQgOTAxLjYzNyA0NjQuMjg4LTIxNy4wNDEgMTUxMy43MmMyMi43MjggMTAuMzM2IDUzOC43OTMgNDQ2LjQxNiAxODQzLjE2IDQ2Ni45OTMgMjAuOTE5LjM4NiAxNS43MDYtMjUyNy4wMiAxNS43MDYtMjUyNy4wMmwtMjU0MS45MyAxMS44NzN6bTI1MTQuNTQxLTI5OTEuNzIxIDE3NzUuOTYgODcyLjEwOWgtMzU1MS45MnoiLz48cGF0aCBmaWxsPSIjMDAzMzQzIiBkPSJNMjI1My42MzYgODg2OC43ODVoNzIuMTYydjM5Ni4wMTZoLTcyLjE2MnptNzg3Ljc2NyAwaDcyLjE2MnYzOTYuMDE2aC03Mi4xNjJ6bTMyMDEuOTUgMGg3Mi4xNjJ2Mzk2LjAxNmgtNzIuMTYyem0tMTEyMC44IDBoNzIuMTYydjM5Ni4wMTZoLTcyLjE2MnptLTk0NC43IDBoNzIuMTYydjM5Ni4wMTZoLTcyLjE2MnptMjg1My4yIDBoNzIuMTYydjM5Ni4wMTZoLTcyLjE2MnoiLz48cGF0aCBmaWxsPSIjMDAzMzQzIiBkPSJNMjI1NS4zNDQgODg2OC44MWg0ODQ4LjI1djg0LjI0aC00ODQ4LjI1em02NDMuMjktMTY4MC4zNTZoMzU1NC4yNzV2NjMuNDIySDI4OTguNjM0eiIvPjxwYXRoIGZpbGw9IiNmZmYiIGQ9Ik02Mjk5Ljg2MyA5NzkwLjczMUgzMDU5LjA3OWwtOTguOTIzIDcyMy43MDNoMzQzOS45ODJ6bTIxMy40NCAxNDc5LjQzOUgyODU0LjgxNWwtOTkuNDk3IDczMy43MThoMzgzNy42NjV6Ii8+PC9nPjxjaXJjbGUgY3g9IjQ2MzcuMiIgY3k9Ijc4MzAuOSIgcj0iMzk0OC43IiBmaWxsPSJub25lIiBzdHJva2U9IiMzMDQ5NTQiIHN0cm9rZS13aWR0aD0iODguMzQiLz48L2c+PC9zdmc+;fontSize=18;" vertex="1" parent="1">
          <mxGeometry x="175" y="630" width="48" height="48" as="geometry" />
        </mxCell>
        <mxCell id="frIzDJCanj5uJxa8QT5g-61" style="rounded=0;orthogonalLoop=1;jettySize=auto;html=1;exitX=0;exitY=0.75;exitDx=0;exitDy=0;entryX=1;entryY=1;entryDx=0;entryDy=0;strokeWidth=2;dashed=1;dashPattern=1 1;" edge="1" parent="1" source="frIzDJCanj5uJxa8QT5g-20" target="frIzDJCanj5uJxa8QT5g-58">
          <mxGeometry relative="1" as="geometry" />
        </mxCell>
        <mxCell id="frIzDJCanj5uJxa8QT5g-63" value="manage" style="edgeLabel;html=1;align=center;verticalAlign=middle;resizable=0;points=[];fontSize=18;labelBackgroundColor=none;" vertex="1" connectable="0" parent="frIzDJCanj5uJxa8QT5g-61">
          <mxGeometry x="0.1127" y="1" relative="1" as="geometry">
            <mxPoint x="38" y="-17" as="offset" />
          </mxGeometry>
        </mxCell>
        <mxCell id="frIzDJCanj5uJxa8QT5g-20" value="portainer" style="shape=image;verticalLabelPosition=bottom;verticalAlign=top;imageAspect=0;aspect=fixed;image=data:image/svg+xml,PHN2ZyB4bWxucz0iaHR0cDovL3d3dy53My5vcmcvMjAwMC9zdmciIHZpZXdCb3g9IjAgMCA0OCA0OCI+PHN0eWxlIGlkPSJzdHlsZTIiIHR5cGU9InRleHQvY3NzIj4ucG9ydGFpbmVyX3N2Z19fc3Qwe2ZpbGwtcnVsZTpldmVub2RkO2NsaXAtcnVsZTpldmVub2RkO2ZpbGw6IzEzYmVmOX08L3N0eWxlPjxnIGlkPSJwb3J0YWluZXJfc3ZnX19nNDE4IiBzdHlsZT0ic3Ryb2tlLXdpZHRoOjUuNDU4MzMiIHRyYW5zZm9ybT0idHJhbnNsYXRlKDIuODQgLTMuNDgpIHNjYWxlKC4xODMyKSI+PHBhdGggaWQ9InBvcnRhaW5lcl9zdmdfX3BvbHlnb24xMiIgZD0iTTIxLjggNjguNXY4LjJoMTg3LjR2LTguMnoiIGNsYXNzPSJwb3J0YWluZXJfc3ZnX19zdDAiIHN0eWxlPSJzdHJva2Utd2lkdGg6NS40NTgzMyIvPjxwYXRoIGlkPSJwb3J0YWluZXJfc3ZnX19wb2x5Z29uNCIgZD0iTTg0LjMgNzYuNmgtNHYyMC43aDR6IiBjbGFzcz0icG9ydGFpbmVyX3N2Z19fc3QwIiBzdHlsZT0ic3Ryb2tlLXdpZHRoOjUuNDU4MzMiLz48cGF0aCBpZD0icG9ydGFpbmVyX3N2Z19fcG9seWdvbjYiIGQ9Ik0xMDEuNSA3Ni42aC00djIwLjdoNHoiIGNsYXNzPSJwb3J0YWluZXJfc3ZnX19zdDAiIHN0eWxlPSJzdHJva2Utd2lkdGg6NS40NTgzMyIvPjxwYXRoIGlkPSJwb3J0YWluZXJfc3ZnX19wb2x5Z29uOCIgZD0ibTEyNSAzNy4xLTQuMS03LjEtNjguNCAzOS41IDQuMSA3LjF6IiBjbGFzcz0icG9ydGFpbmVyX3N2Z19fc3QwIiBzdHlsZT0ic3Ryb2tlLXdpZHRoOjUuNDU4MzMiLz48cGF0aCBpZD0icG9ydGFpbmVyX3N2Z19fcG9seWdvbjEwIiBkPSJtMTI0LjYgMzcuMSA0LjEtNy4xIDY4LjQgMzkuNS00LjEgNy4xeiIgY2xhc3M9InBvcnRhaW5lcl9zdmdfX3N0MCIgc3R5bGU9InN0cm9rZS13aWR0aDo1LjQ1ODMzIi8+PHBhdGggaWQ9InBvcnRhaW5lcl9zdmdfX3BhdGgxNCIgZD0iTTEzNSAxOTIuNVY3MWg4LjJ2MTI3LjRjLTIuMi0yLjUtNS00LjMtOC4yLTUuOXoiIGNsYXNzPSJwb3J0YWluZXJfc3ZnX19zdDAiIHN0eWxlPSJzdHJva2Utd2lkdGg6NS40NTgzMyIvPjxwYXRoIGlkPSJwb3J0YWluZXJfc3ZnX19wYXRoMTYiIGQ9Ik0xMjEgMTkwLjRWMTloOC4ydjE3Mi40Yy0yLjMtMS4xLTcuOS0xLTguMi0xeiIgY2xhc3M9InBvcnRhaW5lcl9zdmdfX3N0MCIgc3R5bGU9InN0cm9rZS13aWR0aDo1LjQ1ODMzIi8+PHBhdGggaWQ9InBvcnRhaW5lcl9zdmdfX3BhdGgxOCIgZD0iTTQzLjMgMjA3LjVjLTEwLTcuNC0xNi42LTE5LjItMTYuNi0zMi42IDAtNy4xIDEuOS0xNC4xIDUuNC0yMC4yaDcwYzMuNiA2LjEgNS40IDEzLjEgNS40IDIwLjIgMCA2LjItLjggMTItMy4zIDE3LjItNS4zLTUuMS0xMy4xLTcuMy0yMS03LjMtMTQgMC0yNiA4LjctMjkuMSAyMS43LTEuMS0uMS0xLjgtLjItMi45LS4yLTIuNy4xLTUuMy41LTcuOSAxLjJ6IiBjbGFzcz0icG9ydGFpbmVyX3N2Z19fc3QwIiBzdHlsZT0ic3Ryb2tlLXdpZHRoOjUuNDU4MzMiLz48cGF0aCBpZD0icG9ydGFpbmVyX3N2Z19fcG9seWdvbjQ0IiBkPSJNNzcuNyAxMDYuNUg1Ni41djIxLjNoMjEuMnoiIGNsYXNzPSJwb3J0YWluZXJfc3ZnX19zdDAiIHN0eWxlPSJzdHJva2Utd2lkdGg6NS40NTgzMyIvPjxwYXRoIGlkPSJwb3J0YWluZXJfc3ZnX19wb2x5Z29uNDYiIGQ9Ik01My44IDEwNi41SDMyLjZ2MjEuM2gyMS4yeiIgY2xhc3M9InBvcnRhaW5lcl9zdmdfX3N0MCIgc3R5bGU9InN0cm9rZS13aWR0aDo1LjQ1ODMzIi8+PHBhdGggaWQ9InBvcnRhaW5lcl9zdmdfX3BvbHlnb240OCIgZD0iTTUzLjggMTMwLjJIMzIuNnYyMS4zaDIxLjJ6IiBjbGFzcz0icG9ydGFpbmVyX3N2Z19fc3QwIiBzdHlsZT0ic3Ryb2tlLXdpZHRoOjUuNDU4MzMiLz48cGF0aCBpZD0icG9ydGFpbmVyX3N2Z19fcG9seWdvbjUwIiBkPSJNNzcuNyAxMzAuMkg1Ni41djIxLjNoMjEuMnoiIGNsYXNzPSJwb3J0YWluZXJfc3ZnX19zdDAiIHN0eWxlPSJzdHJva2Utd2lkdGg6NS40NTgzMyIvPjxwYXRoIGlkPSJwb3J0YWluZXJfc3ZnX19wb2x5Z29uNTIiIGQ9Ik0xMDEuNSAxMzAuMkg4MC4zdjIxLjNoMjEuMnoiIGNsYXNzPSJwb3J0YWluZXJfc3ZnX19zdDAiIHN0eWxlPSJzdHJva2Utd2lkdGg6NS40NTgzMyIvPjxwYXRoIGlkPSJwb3J0YWluZXJfc3ZnX19wb2x5Z29uNTQiIGQ9Ik0xMDEuNSA5NS4xSDgwLjN2MjEuM2gyMS4yeiIgY2xhc3M9InBvcnRhaW5lcl9zdmdfX3N0MCIgc3R5bGU9InN0cm9rZS13aWR0aDo1LjQ1ODMzIi8+PHBhdGggaWQ9InBvcnRhaW5lcl9zdmdfX3BhdGg1NiIgZD0iTTU3LjYgMjEwLjdjMi45LTEyLjMgMTQtMjEuNSAyNy4yLTIxLjUgOC41IDAgMTYuMSAzLjggMjEuMyA5LjggNC41LTMuMSA5LjktNC45IDE1LjgtNC45IDE1LjQgMCAyNy45IDEyLjUgMjcuOSAyNy45IDAgMy4yLS41IDYuMi0xLjUgOS4xIDMuNCA0LjYgNS41IDEwLjQgNS41IDE2LjYgMCAxNS40LTEyLjUgMjcuOS0yNy45IDI3LjktNi44IDAtMTMtMi40LTE3LjgtNi40LTUuMSA3LjEtMTMuNCAxMS44LTIyLjggMTEuOC0xMC44IDAtMjAuMi02LjItMjQuOS0xNS4yLTEuOS40LTMuOC42LTUuOC42LTE1LjQgMC0yOC0xMi41LTI4LTI3LjkgMC0xNS40IDEyLjUtMjcuOSAyOC0yNy45IDEtLjEgMi0uMSAzIC4xeiIgY2xhc3M9InBvcnRhaW5lcl9zdmdfX3N0MCIgc3R5bGU9InN0cm9rZS13aWR0aDo1LjQ1ODMzIi8+PC9nPjwvc3ZnPg==;fontSize=18;" vertex="1" parent="1">
          <mxGeometry x="646" y="910" width="48" height="48" as="geometry" />
        </mxCell>
        <mxCell id="frIzDJCanj5uJxa8QT5g-22" value="&lt;span style=&quot;font-size: 20px;&quot;&gt;&lt;b style=&quot;font-size: 20px;&quot;&gt;LAN&lt;br style=&quot;font-size: 20px;&quot;&gt;&lt;/b&gt;&lt;/span&gt;" style="text;strokeColor=none;align=center;fillColor=none;html=1;verticalAlign=middle;whiteSpace=wrap;rounded=0;fontSize=20;" vertex="1" parent="1">
          <mxGeometry x="40.5" y="190" width="85" height="50" as="geometry" />
        </mxCell>
        <mxCell id="frIzDJCanj5uJxa8QT5g-58" value="" style="rounded=1;whiteSpace=wrap;html=1;" vertex="1" parent="1">
          <mxGeometry x="350" y="790" width="150" height="110" as="geometry" />
        </mxCell>
        <mxCell id="frIzDJCanj5uJxa8QT5g-53" value="some application" style="shape=image;verticalLabelPosition=bottom;verticalAlign=top;imageAspect=0;aspect=fixed;image=data:image/svg+xml,PHN2ZyB4bWxucz0iaHR0cDovL3d3dy53My5vcmcvMjAwMC9zdmciIHZpZXdCb3g9IjAgMCA0OCA0OCI+PHBhdGggZmlsbD0iI2ZmZiIgZD0iTTQ3LjAxIDE5Ljg5OWMtMS4wODItLjc1LTMuNTU5LTEuMDMyLTUuNDk1LS42NTctLjIyNS0xLjg3NS0xLjI2MS0zLjUxNS0zLjA2My00Ljk2OGwtMS4wMzYtLjc1LS43MiAxLjA3OGMtLjkgMS40MDYtMS4zNTEgMy4zNzUtMS4yMTYgNS4yNS4wNDUuNjU2LjI3IDEuODI4Ljk0NiAyLjg1OS0uNjMuMzc1LTEuOTM3Ljg0NC0zLjY0OC44NDRILjIxN2wtLjA5LjM3NWMtLjMxNiAxLjg3NS0uMzE2IDcuNzM0IDMuMzc3IDEyLjIzNCAyLjc5MiAzLjQyMSA2LjkzNiA1LjE1NiAxMi4zODUgNS4xNTYgMTEuOCAwIDIwLjUzNy01LjY3MiAyNC42MzUtMTUuOTM3IDEuNjIxLjA0NyA1LjA5IDAgNi44NDUtMy41MTYuMDQ2LS4wOTMuMTM2LS4yODEuNDUtLjk4NGwuMTgxLS4zNzVaTTI2LjI0NiA2LjY4aC00Ljk1NHY0LjY4OGg0Ljk1NHptMCA1LjYyNWgtNC45NTR2NC42ODdoNC45NTR6bS01Ljg1NCAwaC00Ljk1NHY0LjY4N2g0Ljk1NHptLTUuODU1IDBIOS41ODR2NC42ODdoNC45NTRaTTguNjgzIDE3LjkzSDMuNzN2NC42ODdoNC45NTR6bTUuODU1IDBIOS41ODR2NC42ODdoNC45NTRabTUuODU1IDBoLTQuOTU0djQuNjg3aDQuOTU0em01Ljg1NCAwaC00Ljk1NHY0LjY4N2g0Ljk1NHptNS44NTUgMGgtNC45NTR2NC42ODdoNC45NTR6IiBzdHlsZT0iZmlsbDojMjQ5N2VkO2ZpbGwtb3BhY2l0eToxO3N0cm9rZS13aWR0aDoxLjMzNTA1Ii8+PC9zdmc+;fontSize=18;" vertex="1" parent="1">
          <mxGeometry x="393" y="800" width="65" height="65" as="geometry" />
        </mxCell>
        <mxCell id="frIzDJCanj5uJxa8QT5g-83" style="rounded=0;orthogonalLoop=1;jettySize=auto;html=1;exitX=1;exitY=0;exitDx=0;exitDy=0;entryX=0;entryY=1;entryDx=0;entryDy=0;strokeWidth=2;dashed=1;dashPattern=1 1;" edge="1" parent="1" source="frIzDJCanj5uJxa8QT5g-82" target="frIzDJCanj5uJxa8QT5g-58">
          <mxGeometry relative="1" as="geometry" />
        </mxCell>
        <mxCell id="frIzDJCanj5uJxa8QT5g-84" value="measure" style="edgeLabel;html=1;align=center;verticalAlign=middle;resizable=0;points=[];fontSize=18;labelBackgroundColor=none;" vertex="1" connectable="0" parent="frIzDJCanj5uJxa8QT5g-83">
          <mxGeometry x="-0.0826" y="5" relative="1" as="geometry">
            <mxPoint x="-29" y="-9" as="offset" />
          </mxGeometry>
        </mxCell>
        <mxCell id="frIzDJCanj5uJxa8QT5g-82" value="" style="shape=image;verticalLabelPosition=bottom;labelBackgroundColor=none;verticalAlign=top;aspect=fixed;imageAspect=0;image=data:image/png,iVBORw0KGgoAAAANSUhEUgAAAsAAAAIACAYAAACMx9pbAACO70lEQVR4AezBgQAAAACAoP2pF6kCAAAAAAAAAAAAAAAAAAAAAAAAAAAAAAAAAAAAAAAAAAAAAAAAAAAAAAAAAAAAAAAAAAAAAAAAAAAAAAAAAAAAAAAAAAAAAAAAAAAAAAAAAAAAAGbvLsCizNr/gR9ABXPt4ufa3c3aXe/azbqK3YW4i+gqrphYtAhKp3SnxDw8Z4Ch7e5619VNC5j//ey7s3+3TWRmvp/r+l7MYOwCMz73nLnPfQCgzOhTqk+ZM6fO5WvX6p46fbou57yuXC7/LVlZWXWv3rhR9+z583XPnD1bd+f+/XV7DBpUm/7cR5TqlIoMAMoIAAAAVKc0oDShNG/crl3X+StWGPUaMqRHTl6eUdGpU0YFBQVGnHMjKmZ/iyiKnxywt588fd68/SMmTozdunPnLSpuH+Tl5z+Qc/6Afs9vyczMfHD23LkHhUVFD+jvenDc0/PBqg0bro6cODFj7NSpMfOWL9+8w9p6VmR09GD6vdLf/9qR/v+o+Da6dvOm0Y3bt42SUlONPlu0yGjU5MlGVRo16s4qVerAGGtKqUapSNFhagUAAAAAmjM9vQGN2raddtzLaxkVl8uoEHzlJCYnr42Iitp4wNbW0WL79pD15ubJK01NMzZu2XLH1smphAraR9kKxYvcvLySnJycEvozfxnOeanIuZJT6P4rRfq9UkRRVP76Z0ulv+ttI/2/nj5zpoQK8ZJ0QSg5ZG9fYrVvXzF9Xd8sX7/+4tovvkg9aGfnQAX4zhMhIRZUbC/94/dFoVAsO5mWtuyTkSMXsI8+GsgYq8MAAAAA4L3QmbN4sZ5MEPSUSqVuvbZt23zcqdNah6NHnWkV1oVz7kIFmpSjgiAc9/T1lYq5i1TAfh+XkKCkwk0qLl87VAQqqUVBmS0lO/uXZP16m35d7cJfKsZVX5fi169Luk1fL4XyN39e+jNCRobSzslJaePoeCkkPDyCc+4qfd8pLlmZmS7RsbGuk4yN9xg0bLigadeujW7dvKlHv6ZH/w29k+npeowxXQYAAAAAf1LDw9u7QVFhYf1tu3e36T106MptO3emZGRkZFExlUkrtGcDgoJ+SkpO/stiVFWkKihU0L3jQhJRFc1/9b0VBEFJhbEy4MSJR6lpaYXSz4uSJUkTBLnRiBFuE2bPHnLl0qV6CoWiwZ4DB+ozxmoyAAAAAC3S9KCjY9/CwsJBOQrFAHtn52nUOxsVFhHxX1pRfMg5lwqpJ2np6X9amUVxWz6T9evP508r0JTkkydLqUj+nu4/pCL6Ib3QuTNu2rRk68OHZ+fm5vanXuWBhxwcBrGaNesyAAAAAHVXq3nzvrSSu5qKozWU1bSxa7OphUVKUFjYY+qllYqkUikv9cxqfhBVW0apFOpVLqUe5FJqb/GjFf81tEq8ZvHq1Ytpo15fBgAAAFDO6KZlZFSkwrYitS5UaNCuXZfRU6fuLigs9KDCxp2KGS/aYHU6ODT05ZXbP72VjiCqXmTVbR9//9Ijrq5nBEHwpseLO7VNuHfq1894uolJ5cKCggq0SbFiWfQWAwAAAFRNTktrTAVI46927uzcf/ToXTJRzM7KzMyjwiUvMSnpMrUxlLz8Vrh0W3UfQV41qg17qoI4ITFRSe8ePBRFMZ9+LW+/jU3uoLFjrekFVnMqkA2pncKQ6etLEyr02FsAAAAAqDLTxGRAukw2nHp1hy5cudIlTRC+oQLkMef8e+rTffF3q3gI8r5WiKXIBEEpPf4459/R5x97+fo+Ml64UNhkabmOfn14QVHR8G4DB/Zk/wYAAACg1/Dh3al4WE9FxQY3Ly8H+yNHvqNWBrUqlhBEQf3l1DZx/WRKyia6b0YF84bO/fqNlKaNMAAAANA6urRSVolzXik0PFy/XuvWY2iGqx0VCX70Ob+g0NCCbIVCteqG9gVEbfPyuDxRFJU0K/o6zYiOpse1L8009u4xZMjkww4OBnS/UrvevSswjQEAAADVsnNzP6aLfFNaBWs2dvr0FVutrHK5XH5KTomNi7tHJ6C9PM5KI4shBHl5jB6NZlPGxcf/l3P+y/Ng9caNR3fs3dvhwoULTZeZmjbG0dAAAADqpHr1tnQy12i60I8VRXHsBgsL1yyF4lu6yP8gRRCEZzKZDH27yO+DnmLpGOsf8wsKfrRzdr5gtXfvsoL8/NFOLi79GGMGrPwAAACA+q1b9+FZWV/Q6pYFbQratnPfPnlKaiqKHAR5B0UyTZ646+XnZ5eXl7cpKi7uC51atXozAAAAKBM6K9avN1AoFAbjpk+vP3LSpL20ihtMF+kg/xMnTsv/MGMXxQuCvLsiWJU0mUyaT3yabp/YtX//iZbdui2PiompLIqiQVVDwwrsLQEAAEClStV2WVu3ootwy+WmpjP3HjxYRBfeczSR4RJddItVJ6eV3SY1BEFUz7ek5GRldEyM1FZ0TuT83LJ16w55+/m1p9XiFoYdO9ZirwYAAAC6DxrUwc3Tc5KQkTHJat8+Rw9v75/pgvuTKIrPhJdGkZWvnl0EQQ8xPT+L6f7P1DLxiDbTBYRHRs4KCQ8f23f4cEP2EgAAAKhQodnwCRPW0UrS9rT0dCvnY8ey6bbq4opCF0HUuDimVeLnfoGBUaIobl1tZmbMatSozwAAALSGvr4+jVyqqlQqDVr37DkrLikpOCcnJ5zGj8k9fXyK09PTVTN3NazoRRAUwlK7UkRk5LfxCQnpdD/S3ctrF/UQGxYVFuozTQIAANC2V68GdBFs6+3v333qnDn+NHf0Ml38LiUkJj7KEMXfLpDZ6OFFEK1qmaANrM9FUbxFL3jDsxWKTwRBaMMAAADUVdvevds6ODtPp9OmjL/esyeJc/6ELnhPBUEo5ejfRRDkz3lKeUxZQZlOacUAAADUwfwVKxbFxMVZH/PwyKDNL2hlQBDkTZNG2UHZR/sC5jDG9Fg5AQAAoD9uxoy61jY2a6jQTQgND/9ByMh4Z4UvgiAI5/xbURQT6HZISkpKC7pfncYgVmAAAABlacinn1Z18/LqPH3ePLeY2Nib1Mv30y+zQd9v0YsgCHJbCud8iyiK7UXOW7L3CgAAoEoVQxppNCkgKOhwWEREsci5qqcXQRCkLFNMecE5vyAThAV0ezblI/auAAAALFm7tieNKTtIpzvF0qiyEszmRRCkHMaPcogyhQEAALwuOrWp+rUrV2p8MnKkeXhERDKNLjtHwXHDCIKoQ+5RkijBlAYMAADg73To27c+HT/c46Cd3ch1X36ZQyu8t6nd4QltNsFpbAiCqGuSKI0YAADAyxq1bduPVnfn2jo5hVBfr1TovhBFERdOBEE0JbGUOZTpDAAAtFiFCoZ0Jv9XVOw62h85clEQBKzyIgii6XlKcaY4UHoyAADQeDqubm61p8yd+0liUlIwtTYUREZHF0sFb3Z2Ni6MCIJoW85QOjEAANBIVamtobOXr+9834CAe9TP+0jkXJmJ1V4EQZCzlKEa0iMMAABNO3euZbVv30K7I0dsEpKSHmbK5aWcc1zwEARB/pwoylxKVQYAAOrF7KuvdGhVt0JWZqZZXHx8ZHBo6P+OJMbFTd2Off0loihKH0uliFLo/nt9EYMgiD3FgKLDAACg3Ku4defOhnRIxToqgBXSRg/6iJm9Hzj0/f9Tm4l0P10mU55MSXkqZGQ8pM/dV4V+//3Q8PD71ocP3zfbvPnWyEmTYsfPmuU0bd68fWOnTXMbOGbMyYP29pcuXrp0n/q2pT/zxuGc309LS/s+PjGxJCUl5V8L68xfvx5V8MIK0dAUU/IpaxkAAJRb+lutrLp/sXWrZUpq6m1RFJ/iAlb2yZI2Ev7hxYbUZ03FrDIqJuYC51ygz8noo6ywqEjm5OoqGzh2rPkEY+PuoijWoV/7JfR31HH39q6zdN26OsPGj6/NGKtOMaDoU6pI91eYmdW6c+9eHUVOjvRn3ig5CkVtdx+fhr2HDZvYoU8fZyq2U2SEfu1vQwV77ong4DvUS/49HYOtlN5dSE1Le+MNlFIBTX9W9X1DkPKWZ5Q1DAAAyhUdGmH2uZOLizVtbLuDzWxlu6pLBe/vVnSlQtfx6NGzVBAeoc/ZSaHjou1Nli3bXbN58x6Dxo+voHz+XIdzrnPu/HmdzVZWOowxSrmgQyvNOvT/rkP/339Kbm6uzuXLl3Vqt2rVsKqh4fhqhoZLJsyatX/+8uV2AcHBdoWFhXacc+lrfqXQ98uWZk670mNX3Hfo0Hk3L68S2pj5SqvnCIIiGABAy1y+eFFXv3HjxjZOThaiKPr5BwY+l8vlKBLefz9uMX18IYUWSYupaPt+286dR/Nycz+nz5nQKqbJ/sOHTRq2a9eXwavSpbSjWdRGJsuXG1Mrhon0vZRChe+8kLCw1Rbbt8ujYmNLcnJyXnD63nPOsYkT+VBzg9cxAAAoO826dq3o4ubW2M7ZuYONo2McrZydpbei0d/7Hvpzpb7cVOqJpWLrtpxCv3YnJy/v/Fc7dy6k290pPeh732PKnDldGGM12HsFtVu0aOrl79/jzOnT3Y95eAwwt7R0C4+MvEc/t9uCIDygOdYvpJVj1c/wPT4nEORpGfQEAwDA+JkzO9IUh8GePj6bgkJDv6OL+3fSSW1Y8X3zqOYev9y2QAeCZNPtJGppSKYXGkmT58z5jHpca9PnakrJLyqSCl1dBh9cq169DHz8/WsqFIqaY6ZNaz9m6tR9oZGRqXl5ecnSzzAhMTGHni8/Zoji737OtEIvpZw+bxC0QwAAQOWJs2cvpIv1+iOurkW02oiLzjsodqXQ2+jKiOjoq9GxsUfo8/sV2dkHlqxZY8lq1GjMQCNUatSoyf917Lg8KTXVOpt+vvRz308/8+MHbG1P0fNJGRsXJz0m/rRxEYUx8hp5/vYrwQAAoKtUKvXqtWrVg1YfbangDffw9pZWGfBW7uunlPJMCn3vnnv7+T3cZGkpbbgyps8ZF5069ZnVgQMDsJqrdfR169TpNdPEZDZttjOmx4YxFcezT4SErFhnbu67YMWKCy7u7k/y8vOfqR4/GaJYTK0VL4+FQ5H8tsFKMAAANG7fvup+G5tm81euXCsIQg69DX89NTVVushiJNQrhgqUEpkg3KHb16mguX323DlvLood6H5nhULRmU7Aa88Yq8YA/l5tVqVKyy+3bet0+uzZztJjJyYurvuoKVMsZy9cmE4tMjeoYL5O0zzuxcTGltLH/81C1vpeY4RGTsbU+PjjKuzfAQBA9WbN6lCxNpiKX3uap/pEFMVnWF16rVyjxND3K4GKE4dBn37a9ub161WpvaH6rTt3DNi7AVChZtOmVTx8fKqfP3euGs1K7mI0YoQLrSDH02MvPjA4+CxNqXiuet7Si1YUxFoU6eftfOzYBaavP5D9IwAAqHvk2LH5NK/XP0MUX+Ai8o/542SGaFEUd9LtfZQRDODD0mWVK/ei/vH1CoViN41vsz7s4JBDRbH0uNWCdglE2lBJM6yfde7XbyH7MwAAMBo1qtqi1asX0ElgSdTm8NPfrxKh0BX/98Lgicj5z/sOH/ajcW8z6f704LAwQwZQjlVr0kRquZmWo1BMo9nc87/eu7cgPz//Cef8idSqo3l9xFgBpr0aSuOFC80YAAD8f6IoVl1pZjY2Nj4+jQq5H/4wkYCC2btSPyWNrfqObl+ifrrTC1atWs3l8nZUMLT9uEuXWgxATfUbM6bJmbNn21HfcIcFK1fuz83Pv0iP/UvxCQnfqTbW4d8E9Y707xf9fDcwAAAghE61GkEFnZO0osk5x0Xu16jmsAaFhDyl1fAUmrUb1qVfv7lKpVKfCuEqmM6gkUBHp2LBqVNVHty9W7l9374mKenpIfQiMCIsIuJacnKy6vAO9ZxTjHewUAAzAICaNXsdPXZsh7u39xMc1/r7pNFqyd6DBy/QBePr+StWrGCM1WIAWmzCrFkjaFSflUKh2Hb0+PFAmlX8gsYg/royTFGH5zaCAhgAtJfl7t36dCTrRP8TJ87TR2klR3tXRF7qcxQE4QV9fEZHC7vQ8bXjG7Vt24sBwF+pN3zChHG0V2ACjWGbTvOrg2jD7BNaGf5JFMUngiBgHjEK4PIBAKDn4MF1gkNDe8nl8kzO+beq3lZt7u2VVrCoveE+rfiemmFi8jX1P7eh4rc6A4BXVrF+/VoHbW1bnT1zpvnKDRuGmllYiLTx6jw9v+7EJyaqnm8ohlEAAwCUKV3a/dvnkL19aFR0dLE2X4RU/Ysi50ra8Kc4aGcX0KZnz9HU11uBMabH3hoAjJw0SZ+eawbdBg/ut8HCwitTLj/h7et7kV5s/vL8y0Ih/EHCOV/HAAC0wRpz86p0AMMOdy8v6YQorZ/mQBvantg4OvpJKyEDxo1rxwCgTNRu3nwgbSQ1p3ehrH0CAq7n5uaiKC3j5BcUJN24fbsp02AAAFVossNqGtElk8vlJVT8aeW8XlEUpfxs6+j4cL+t7Ze0sW24dMgH+1AAQM90y5Y+efn5/zHbssVDkZPzSHqOSmO6fplCg77h9xaFQqGk7/tIpoEAAGqs2bhxuOmmTQq6iPykjS0OUqTeXir+rwYGBcXOnD9/tNnmzYbScbGs/ACASpWqX7127f/mLls2jMYxRtKGujO0CfWmatxa9rt/4Y5wPpxpEgAAmubQYcuOHZ402eFHURS1svClTWxPaRNbsqOLi/tyU9PWtk5OKHoB1ECLbt0qxiYkVJzy+eefUG++1Kbkf9zD41ZGRoYyC4dwvMugANYMALDKzKwuFXo7MgnRyo1tQaGhL2iDzX4ff//5jLGGDADUXsvu3ccKgrDewdnZlQ7ieJyFIhgFMABAZExMpT7Dhs2OiIxMpZPJtGmlV7Wj+alfYODdpWvX7nJycRmIFgeNBVCDnuP9XNzcpllYWmbTqvDPGaKIVeE3yN7Dh6VFAh0GAKCOgiIieodHRbnQRrefRS25EEgHdtDXq6Th+/fpfvam7dsXW2zfLvX26jMA0AqDx42rNWLixMk0UeIk9fqjqH3NfLZoURr1XtdmAADqZOLs2QMSk5M3FhQW/sg5L9WmiQ7U3nDV+dgxz5bduk1UKpU6TFdXhwGANtIx37atyp6DB63pEBuOQzZePQHBwY8cXV0NGQCAmmiwefv29XTc6DVaBdWq/t6Q8PCrbl5eO/uPGjWEvQQAgP49bLHL2jqc5gsXv9K4R8wCfnz6zBkUwOUbAEyfN6+yTBDa0GQHWWxc3FOpDYCKQo0ueGUymZJmgv5offjw5cjo6P/QjvAu6O/9BwDQ0NrGZnyGKF6ifztKsRr8j3nMOUcBXG4BgO6SNWtaOx49GkDF72PV5i9N3tiWRcW9kJFxjgreeKMRI8aZWVjUYgAAr2imiUlrmvl9JC4h4SrNE/7rI5eRxxQUwOUPAFjs2GHg6u5u5urmdlHTVzIUVPTGxMYqQ8LC+Jlz5w4tXr++9SRjYz325gAAxy739vD2PhQVG5uZk5ODohcFcHkHAHK5fF66TBZEHzX+bTzavFK81cpKRuONVg0bP74dAwB4h+YsX94uJy9vqUwQ0lD4ogAufwBAZ9SkSUb01l0s9fg+0tj+Xoo0sk0QhB+dXF2jvt6zZ5xOrVofs/cIACAhKanp13v3rk1NTb1Neww+dDsZCmAAgCVr1zbfvGPHRupXu0fR9BXfazTDN2bUlCn/Mbe0rMoAAMoQLTL02bZz53k6NVL5YSZGoAAGADCgE8w+pZPMhOSTJzVyRUL1NYmieF0QBCfapT1Q2tzHPhAAgJpNm/ZYaWoaR4doFJfhv7sogAEALHfvrmG5a9exwKCgh5q4CsE5l1LiHxj4Y3xi4pc0lmgIKy8AAPT0mh6yt9/COf8RBfD7BgBQo0bFkZMnD4yJi4uVVn2zMjM1brWXVlVe0KEVF40XLjR1OHq0EyufAAAqZIjiTLlc/h0K4PcEAECpVOrRwQ5f0/n1P2vaTF/pcA7q7S2NiIrKHTlp0o65S5fWwcEVagIAk3dmUh6hAAYAeMeqNmnSho7r3COXy0s0rceX2huKfQIC4r/cunUL09VtxgBA/aAInv0Oi2AUwAAAl65cmRsaEZErCIJG9fjSx2Ln48dT3Dw95zEDA0MGAKDGOOczRVH8CQXwWwAAWGNu3pFWRd0VCsVjahHQnFFmaWk/hYaHZy03NTWeu2xZQ6YZAAAMaExaIArgNwMAUC0kPHxkYVGRNPpLY1odRFG8Q19P7JylSxcvXrv2I8aYDtMgAABBoaHdaTLP2dfYo4ECGACgsKCg1TEPD5f4hIRvNeUfUFEUn0XHxnrTdIeJTMMBANg4OKyPio7+t43KKIABAEZMnFhtxIQJVoIgZBIlRa1Xe1VzfGmqgy9lMqtYsSoDANACg8eNa0FtXgJWgP8eAGC0WcV1FhZDqEiMjaYxYJxztS58pSQlJz8Nj4zMXrhq1WdH3dw+YgAAWmbY+PFfhUVEPNfEVWBq8ZD2paAAfjMAULlhw1Z5+fmWObm5Tznnar3qq1AopDm+ypCwsOzp8+aZjZk6tSZ6fAFAW81asKCqQqHQyF5gKuwfe3h7owB+fQCQmpo6y87JSZEhipowx1d50NY2b8fevV8yxloyAAAt983jx7rnL1wwz8zMfK5pBbD51q2PR06ciAIYAF5dk44dO23ats2Z3j76JisrS63n+FJKAoOCfvT08dnIatbswAAA4Dcbt2yp7+nr+0DTCuDPFi3K1alVqx4DAHgVRadO9c1SKC5Rj6zab3JLSEy8ecje3t7JxaWZbt26FdgfAQCAjm9g4JIsDZrjLmXVxo1fMcYqMQCAf1Frv43NVLlcfl1dJzxkUqQVazqO+Wq6TOYjk8kajZ4yBYXvPwAAyMzJ6SbPyrqsSQWwIAgj2D8BAHj0/9g7C+go7u79342hxR2KtIW6u5dSLzWgRPGi2Qiuxa04bXEvngQNGiCEGBJPsOCuxTU6/2f67ntO/++vQpKV7+4+n3OeM0sqTGZ2ks/euXO/16/XWxIauhRTHm5BfO224osZvncwn3gZbud9KIQQQh4YPCA81MEehmskhBDyDw+61UKvb0xSUpJdVn3j4uL0T/pZfQcPTpzwyy/f6pVssQrEK9nf1SvJ380z0d8DKe6THFjKJz2wIr72hGdil/eR5l6J/h09E7oEI72RQfjaSGzHI1Pweja2C5EQvF6N7RpsQ0xfm43XvyL6vzsCGYjXvZFg0/+zObbvYx+eQCrhdSn8s+KIB1674Wsu8sAQQpq2aPHN8rCwi7iLRgF2aAghpb7x9W2KqmmqvVZ8k5OT86fPnp3+RbNmnV56//2KYjGId7KxOMS2EsSzLiTzZeQ7xAjZHK7LKrIeScLXjiFn8foScg25hdxB7iH3kWwkF8lDtH9JHpKLZCP3kXvIHeQWcg25hJxFjpn+7vUmqR6GrT/27TvPpC4v4XUdfK2S/j3I30EIccNdwDVYFdMxBZgQQtoajWXadO48BZMR7uLTvt2Jr77PGzdtOpSxb9+k0FWrSomIi5gN4p0a6A55rA5pfAHy+CnSDhmFrMLX9iM38ToL2xwkF8lHNEWSj+Sa9i0b+3kD233ISrweibRFPsX39zyEvprf3mBTjzghpPfAgQO2YJEge2+F0H9HJCUmQoBNEEJI5oEDpSCPC9Zv3KjZm/zq+4vV265PnTlzbo8BA94Qs0CGXJtn8Eo2VkQbwweQw66QxalIOJKGXEE0B8vvSCqyFpliaqv4AMegwg9XBhjESSHknS+/rBgbF3fQ3uV3xpw5d9oHBLwrgBBCXJ54/fWGEN9we5vygH3V+3zvGbt33zl6/PiGIlJGSKFB5dMFPbIlvFKMdf7TyuA/Edso5DiEMAvRnCz3keOIfgwmQIa/xfGpjeNUAm0TLuIkEHLj+nWP5JSUNHsWYDzTonXv1y9ZRJ4U54YQommai1/79l0nT516wd4+yWMFt/y4nTuP7T94sKmIlBNSKNqe7OnimeRfGbKr9+92QpYhmZC+60guojF/JAe5jmNzENulpgfu9GNWyfdwV0eXYUJcvdu2HRwTG5tjzzPgMQlokogUF+eGEIIfCv3xYEMuVkWzmx9i2F8NK7jlLFq6dGLNp59+Skih8M0I9IC8PW+S3pXIBV3yHqhvl8lHcpALyAr9GGL7nF96UDFxUAjBIkiPoPhw284fgOshzgshpMJjj9XeFBExGgtE5NrTD6+k5GQtMSlp/g9Go5+IGIQU4kG2gAoQtsYQtolIMnKvyELI3EWSTG0SX3olGcuLg0GIZ+vWNcZMnJi5274FuLs4J4SQmk899dbYSZM2oJKaby8/tHDbTQtdufJY9/79e6Nt4yEpEMQ0A7cBtv7IRsjaaYtUepk8HN/TyHqkCx6eq48PHMXEMSDE8NOECR3teVGkxMTEHuJ8EEJmzpvXfPKUKb9jkQjlH3bT909PXHz8yf5DhqwfOHx4HRFxE1KQaq+HZ4K/PrJstGnk1x1KqtVyB8lA9DFxz3mnGCnCxBFWhfsMrRB2uTjSjpgYbf3mzUHiXBBC8Mm3eVp6+k176PdNwENu2yIj74etWhWB/X5DSIHw1ef1Jvk/C/HqDwHbi20OhdRmyUbScQ764pw83eJgV3exUwh5vVGjt8ZNnnweExXsbgTavIUL90rZsq8KIcSpHnbzRq4hmurRBR2ruF3DD6sfRKSqkAemeUJnV7Q6PI70gHTFItkUUGVyHxIcj3SHCNcfenGeQewPQootDQn5xR4rwPjdslScCkIov572IL96WwZGm+Wi8juseatWLwp5YFocCDZgaV99hbYACFY0trconGrGtAJdFLad0Z5SXewMQnZER/fDz2t77ANeIk4BIcQNP6S8cNHfVP3WlJ5Va9akBPTo0U+fTSzkgcGiFSVR8f0KQrUZuYVQMu0jN5FNOF9fYFGNkmInEPJ9q1YBi5cty8PPbft6AC4hYakQQhyeuuN//nkgJj3cUv2H0rKQkEvr1q+fmp6WVpqjzQoGxPcRSNRg5DinOthlciHAJ7AIyY+eScZ6Yg8QUqJE3dVr18bj57fdyK/+4N6o8eOnCSHEcWneuvWbPw4bFo1WghyVf0DtwUMUGXv3bm/VsePHel+ZkAdGH60FafoM8rSGkx0cInrlfhXyKZZa9hDFIQS/W8Lsqfq7ecuW02Xr1HlTCCGOyS/Tp78yZebMo9ujorQ9uOhV/EEUi5m+O3bsODtszJjAI8eP1xJSICBJNSFMfZGDSB7l0UGS+Me53I9tX0hwNVEbQgFeYWf9vxmnTp3yEEKIQz7s9mr8zp0nVJ7xGx0Tc2farFm7fpo48Q0hBcI7yb84pge8DUkKQ65SGh0215BlEOH3PJP93UVBCNm0efNKe3oQDv3KGakpKRRgQhyMYjPmzm0M6T2k8oNuqWlp1zA+J1BcXCoIKRCeSf5lIEVeyG4ky4Fk7zpyFNmNRCBrkFBkMTIPmY78gvyKzETmI0uQMGQtshVJRI472OSLLGQnJLgpFtAoI4pBiHe7dovWb9xoFwti4FkYLWzlyn0YrUkBJsRhKFWqcrOWLcej3/cCfhApOdMXyVuwePHyxJSUxkIKDKq+ZSFCHfWV3Oy05SEPyULOIVvwvfyK9EJa4c+NsX0beQp5GLf+q+DBvvL4nkt7pfh7+OcONIiJNmd6u3inGothYkJp/Hv6v1MVfdB1kGfx/3kP//03SFukH/48A4lCLiHZdnncErvkYrsfaY/vuawoBCHVH3+875rw8Hv2IMAYr5nv2abNwpI1a7qJ/UMIwSppNTDpIQoTFHJV+yG0x7SM8crVq6+gJ3ngW599VkZIgdFlUF/NDTllZ/J2B9uzyA5kDP78PbbPItW9k4ylWx/t7iIWArLoCinWK+Y1sX0Rf7cPMgl/jkPOI3ftTIZP4vvog0pwRSFEEZ54440X8azJGTtZAON2zwEDXhRCiN1jmDR16tO4sHeo2O+r70/4unVaxJYtoc1at3780yZN3IQUcEU3owsqnPUgPhP1yqmdSG8OchxZC3EP8EoyPoWvl8ZrD5+0AIPYCK80o0HfB+zXQzieL2CfeuD1RmxPYZtrB8dVzzlkDFphHmmeGGQQG0PIug0bSuLnfaad9P/e3Ld378NCCLFr3CGULfHDZy9EU9V5iynBvXuP/LBx4zJCCkybYz0NkJ1nkJl28rDbFWQr9ncQRLMhKpVlRXFQJS6Pff0U+zwciTL1ImuK5xL2dRbaPx73OxDsIjaEkN27dhW3FwFetHTpnXGTJtURQoh9MmDYsJKdg4NnYOGIyyrKL/qQtfkLF8bMX7z4GSkUBD2uuvw+D9lZbgfzfW9gX1cjLfG6TpuTvQxiZ7Q61M0VlfZH8T20QTYqL8JoLUGW4PWLYkMIwd3HEni4zC4EeNCIEdOlbNlSQgixyxFnpTDibD7aCpRqedD3JQELWmDfzvYaONDYslOnGlIU2PP7nKnye0fxRRsicDveD9Xemr5JgS5i5/hlBLnge6qNFonW+P4ilV1SGvuE3DY95PeM2AhCGjdvXrxH//4HY2JjlV8EA73KXwghxC7ltzQyF1FOfrds3ZoXsW1b0vETJ96WQkOaxbQ34OGw2hDgiao+pAXxysY2HumIVPfJgPg6GH77g/WKcA2cB3/TaLZsFSXY9CFkPPa1ttgGQjze++KLpfqEBdWXQMa0is+FEGJfjBw/vvzOXbvmqfiDBQ8WXJ89b15fcXd/TIoEwQNj1SA0PyEXIDf5ivafToFwvegkrSgukOCXTbOHLyt4PvKR8zgnI9HPXLnl4W4GsTKEBPft+yHu/t1Tef78rzNmHPukSZNXhBBiP3z47bd10VcboqD85k6dOfM6FrXwlSJDIDHlVB11ZprskIS0RbtDeXEyIJeVcBx+wPefhuQoKMIn9LnH3qkBVj83hKSnpT2C3wl3VK4AY1zoWBFxFUKIXWB48f33X1uxevUWlX6Y6L2+exIS8vB6SJsuXero+ylFgujiAoHxRzIVlN+byBJUfV9ueaCbmzgprff2dMMxeA3HYimOy20FJfgwepc7eqf4U4KJtdvzHlNdgBMTE/sKIcQ+aPDKK19PmzVrHy5epZaSXLJ8+dV9Bw4M3rxxo4sQczzwVsozqcu3EJgjkKt8xeT3EjLWK9lYp+3ZvgZxclod7W5ANfgRHJOJptXlNMWyH/v2Lar0xYUQCrAuv/pkovsLlyzpIIQQ9Xny9dcbQn73qzbmLDY2dvkTr732nYhQfs3X+vCOaeJAtmK9padRURwA+a3tlRJgkl/S+nhPA2bw1sH5GqwvTqLY8sr3kG2oVL8phPwBBTh8/fooEakmhBClMTR49dX35y9alKCK/GL5SG0X9iVj374lsTExZcUskFaYl4tqYj2I1DgFb6mfwn4FQvQqCvlLIJmVcYyCPBOU69m+g+gPUj4ihLAFQm/bCxVCiNo8/uqrn86YM0ep1d0w4uzgd76+Pa5cv15GzAZBVbUkKqwBEJXzCk18yMf+HEHaQn4ryL/Ac2jUe7c76f23CrWt5GN7FjHqSz+Lk0NYAU5ITp4lhBBlMbzcsOGby0JDt6vyQyM5OVl/cCAe8x3riVkh6Pk1QH4bQ1J2IPmqTRPwSQkoJwow+8LyEjNOL35z5pkl32HbvMg5s6Qptk+buYWlCo5bf2xPK3Qe87A/kcjnmGnsLk4KoQBH7dhx6v2vvnpeCCFq0vCbb+ovWLx4F8RTCfnFwPCsn6dPX33j5s36QszcQ9rDFX21dSEpi5D7CvX8XtLbMXBrv7ooAGS1NsS3F4Q1E8lDtKIG/89cbIeKmcH5rIpjNwnH8KJCleD7yG+o5D+CpZ4NQohztkAcOHbkSDEhhKjHx02b1l2/cWM4xFOFh9z0nt/T8xYubCwiVcXsEDyhX0l/gAo5o1DF8C72Zzpkqa53qr9NZWn2+WUes84ufQ+iugS5imjmCgQ4C9vBYmbanullwPGrh8xSZtW4xD9yGvkRqwuWEwtByI7o6Pq6AKvY/pC+d2/qgczM4kIIUYsho0dXjNy+XZVFLm6Mmzw5edCIEe+IpaD8uqPC2giCkq7W7XL/ZRCl18TGzDy7pBIE1Ygkofqbg62mvgAD0GJ/DwPO7Rs4jiE4plkKnd8E7FPDVkd7uIsFIKRdQEBjjMi8r5oAo5hz/+cZM77jrHpCFAPzdMvhk/NiFT4lY3tze1RUexHxEItBIEj6+Kw5kJKbishRDnIQ+9QEcREbMevcEnfI72uQ3pkQ1POIpseeBFjHK83fBcezKY7lfoXGo13V33P48FVXzA8hru9+8cWgmNjYHOWmP+zZcwcS/KgQQpTqmSqFzFdhxBkevLuNKnQrIZZe7c0DldZv9AUvEE2RXIQcdUcq205+l1WB+LaDnO6AnN5HNHsVYNNkCH08Wi/kKqJKP/BJPHjZGB/Aiot5IcTjjY8+CsPD0vmqtT+MnTTpgl/79nWEEKKM/JZEFtj6h8OePXtyhowalda0RYumYnEIHpR6BgL8m0LV3zvICvT9Pik2YP65UA9UfT+AkM5HLiD5iGbvAmyq9D+PY7sauaNQj/dsjEV7WggxI038/Ir3HTx4r/78iGoCPGbixK56hVpsDyFkx44dD9lafvVs3bYtH9vhWHGunFgD9v4Wg4C0Rn5XaOxZKvKZX0awh1gZVHwbzDizeDBk9CC2he/1VVSAffcGlYAEf2zq9c5X5IG4c4hfqyM9XIQQM4ExYyViYmIyFRx/pm2NjGwstocQomnaQ6lpafNs/YNh8bJlmYNGjhz02+LFrmIt2Pv7CkRkKZKriPyeR0aiIlhVrAimO1RA1dcHAhwJEb2NaHocTYB1fPcFlYNwjtWPtULLJC9Cxf9Fv71dKcHmgnc0SyBKCTDubmpzf/vtpG/79m+IbSGE1H322ZIjxo5dkJSUZNue3127ln707beviNUgLTK7uUGEephmxOYrstpbhCdu02PrLlZg7uWQYpDed5A5yCXzy616Atzx4gAXryTjyzjGWxBVZj3rPd9d9TsS4qAQCrDe/rA6PHwi2x9sDyHurzZsODAkLCzfVg+6ofVCf70cKSdWhA++Gd1RcXsF0rFKqeov5hD77gu2uAQtOL+iGCq+L0A8RyGHzLaghfICDAAE+CEc66GmRUZUaX1Zob8nfTMCDUJIETl6+HBx/F45qFQFOCFBS8vI6Cu2hRDStGXLb8JWrjxvq4UuMOHhSPd+/RauWrOmjFgVghYDCJB/L0jHKYV6QVehJePVbmfHWEyA5l8Kc0el9wVkEHp8M5As8wut+gLsnWZ0w7F+zfRAXK4K5x/bE3hf9kDchJAi0trfvyJmAB9Wqvq7du3eZ9955yWxKYTw9lA9VGCjbfgDYefysLCnxVZQgGtDOkIVWu74d+xPd0hZMbEAK7M3u6Li+yTSB9KbZPGxZooLsI7fviB3HPOeehVYEQHOR5ahClzZc08XgxBSBKo+/rj3hk2brkI8VeoBXiu2gxCCi7A2LkZbyq9OA7EJpEVat2Ko/jaFbKSo0AOKfbiHbRjyBsTHxbyzfJe64QG3+qj4doNgxiFqVHwVEGBTK8SbeusBkqvIXOAEfDj7Gu/PUkJIEfj0u+/mhK9bp6kgwLuRbZGRObjjOUpsAyGkXWBg1Yx9+2Jt1PN7bv3GjU1xW6qO2AzinWSsAMGYqq/EpdCKYIGo/JUw31SHJcUhv0/rrQ4Qy51/PdmBAuy3L7gkhDNIn8SgSBvM78gv2KfqQkgRCF+/fmVsXJwy1d+4uLiTT7/xxsNiEwghbt/5+k5B760tfgCcQt4Tm0JaHOzmAsF4FtmjSMUvD0nG60bmGmcG6W2IjEMOm8RS00MB/tt2mE9x/DOQHEXeE4nYpxeFkCKwZ/fuFarIb7y+smlISMaa8PDiYn0IIfMWLmy8Izr6nLVv/WB7EvlQVIDLHleCXBj1JWgVqf7eQiZgnx4p4gIW1ZGmkMgFkMmTBZjqQAFO8q+Pc/CzZ6IydwTOIP7Yn/JSeAifc1mhUPU35/NmzbrZYPwZIQTi+zZ6oY5YueXhXsiKFWNw8b8jRAkgO89BLMIVWgr3POT3G5/0QA8pABBGw/wrYfoM36eRrpDHcORyweWTAuyTFuCBc/CdPoVBkTaIe8hq5AkpHISU2bJt22ZVHoBD29/dA/v2PSrWhRDy1iefPDN5ypTjVv5hcAcC3EZE3IQoAXpsDRDgLyEa5xSR3/vIFuzT0/KAYIpDMchiTchiM0xzmIdtJnKr8PJJAdbBOXhSPxdINqIpkGNYEOXzjjcGG4SQAlL7mWf8Zs6deyMhIUGJ8Wc9BwyIr/7EE9XFqhBCXH4cPnxadHS0NS/6W0hbIUrhnWysjoffBkAubirS63kK6Yu2jKryD4RomwyQwxqQxEaQ3hF4nYTcMmObAwU4xVgZ52SAQssjX8Z7ox9WhqsmhBSQUePH91+LCRDoA1Zi+ePNERE+YnUIYR+UL3LTWhc6treRdkIUrAAbX4FYhCJZighwCtLQb3+Qh/wFcy+FlEbF922kO8Q3HLloGemlAPumB7qjCvwxzsc+Rd4bt/FhLQT79LJPqtEgpGDw915/Jeb+QsBDV6y4MmjEiEZiVQjhD4EWyA0r3ebJGzZ69Nk5Cxa0EKIkkIpvkEMmwVBh4YMIbGvIn5hzYbn7zHNLH4X0/gApXAIpPGj52b0UYB3I5mM4J5GIpkBy9feqPhPYJ5kCTAoG2u/6q7L625Lly+eKSEmxDoSQdRs2WK3yi+TjQh/53Ftv1RWi6Pizrm6eSV0CIBY3FBGc35sndJ74UZxPqdArG9whvFUhgJ/jgbYpqPTuxfaG1SWUAlxNnwaBXFGkCnwfAuyPuAshD06V6XPmhJruSNo0MTExevvDQLEOhJCPvv662aKlS29b6aG3fGQUPnG7ClESn/QAA+TmUQjFFOSuCnIDqdnXPq13v19Ozf8C8tsf8heL3LBhiwMFONlYBuemNZKB5CvwPtFnRP+M90o9IeQBCe7d+9N5v/2WBwFWof3hUNX69d8SQojlqfXss9WHjhp1AGNXrCa/COVXYbxT/N3QT/kZhGKbCk/5o/KrtU/tdWHssekZkL6rSL7tJZQC7JMRhLsE/s9DOjcrIsD5SITemyyEPCAo/HyuRP8vBDwjI2OjEEIsT0Z6usumiIjx+AGQa2nxTUlJyUpLTx8ZvmaNmxDVBdgDAqy3P5xF8lWY9dp17xBtyqkFKktpPpLrTAKsg6kLpXCO5uAc5SIqtMqcxn50FkIekG2RkV+pIMCxsbG3Js+Y0VEIIZZF0zRXXHRDrCC/ekL37tvX4OrNmyWEKI9Xgv9DkIiJSsgv0iI5SOt7YLQ29dRvilZjF19HD/JivJ6DZDmTAKPa6qqPQ8P75aIiveJZ2JdxGNNWXAj5dyq27txZiQUwNm3efPYrL68KQgixKG4z5swZYmpJ0CycMKSM2AWkRWZXF0jNM6gAhypR0cM+tEvpqQ05NEmbdmqhStKrb+9iux3bNrPOLq2A3uQmeH3HqSrAyf4u6LltgXOVosiDcLnYhmCfnmxxqKurEPIPjJ4woc78hQtv2nzp4/j4/N4DB4ZhEapiQgixGC4vf/BBZ1z0uVb41BuClBe7gbQ41E3v//0KEhGtggCjGq11Se+vjT46TZt+apEqAnwL4rsD6Tbz7NJHZ51Z4iJg5pmlzZxNgFFp1R+YfB/vlfWKtEDkIVHYp8+904yUCfKPjBg37sWdmEWvwPizrPUbNz4vhBDL8en339efM3/+QUtdyJjuoPcy/Vd+K4hdQfwOBBeDQPgjBxSZ/vBH/+/kE3O16bav+N5BtiKd0PLwxMLrqwxiYsG1NQbIsNMJsKkPuC7O02xFWiDykX34ENcBY/xKCyF/j9tH33wzE6ue5tl6+sPQ0aP3o/pbVwghluHQwYNlo2NiVliy8rt127bD3/n69sbrcmJ3EO9UYwlU8n7SZ7uqUNHzTjRqfQ6M0qbZrvqbh5yD8G5EWs46t7Tm7PPLXAUAQAFGtbUEztUwJF+hZZGHYUxbOSF/D5+DcUPVNQNFG5svfrEsJKSTEEIsQ4egoPJY63yJhdse9qD6+5jYLcQnLaA05GGxfitZhdXffJMCtYGZ420hvreRZORn5DP095ZfeHmlQf4PFGDPBH93nC8jztc1RFNkHvACVKUrCSF/Q/k6depHRUUd221j+cXDb9fnL1r0qRBCLEIJ77ZtJ+LTrmZBAd6NPC52DUHVrBbkYRMkQo0H4FJ7asMO/2ztam8YWh66IM/NPodq7z/DCnCK0Q3nqhmShuQoUgXegMp0HSHkb/h15syx26Oi8mxe/Q0NXSQiDwkhxPx80qRJm6UhIdf3WE5+E5EGYtcQ331BHpCGtyAxO1Xp//XHA3A/HZ1m6fm995AMiO9PSCOkqjwwFGDfvYEuOFf6g3AbcN7uK/LhKRYf5t7qfGyQq/wFhKSlpYVg8Qmbyi/uymr9hwwZIoQQ8xMbF/dI5Pbt+y1Y+U1G6okDwOqvf1mIjB/kYZ9KD8CNPz7L7AIJyc1GTqPKuxbtDT9gjFm9maeXFJcCQwFukdlNH533PM7ZAuQOoimQDLyP/VpkdC0h/wMh1Z966pHVa9fG23L+724ELYM7P/jyy3JCCDH7Sm/1dwFgybaHx8QhIBDOqpCGH5HTSggwRqD12j9CnwBhLnHMgfSeQDYgw5D351wMKTf7wjKDFB5WgFOCDJi6UFdfgAK5qUgF+CQyAGL+f+SCkIHDh3dftWaNZssKcFxcXF7YqlW/CCHEvDRs3PixuQsWxD/oBc6eX6L3TEIa5iA3VJAY7wSj1v/gGG3KySItgZyLHEdCIbw9sW2ESQ5VxGxQgE2j0MrhfdMbuaaA/Orb69jO9kzy/z/nmhD8Xuxp69XfUP298OE33zQQQoh5GTVhgj+eLrXUQ29JSH1xKAiEoT7EYT2ixINMPhiBNvjQRMz/XVSgnl7I4X3I7km0N4Thzx3R4vA6/lxl1sWlBrEIFOCWh7q74P3TFuftd0RTIDnIOoh5Dfn/IcSAh9+G23jlN61L164bG7z8cgkhhJgP3Fp5FxfYBcivWRv2ExMTtd179iRhbmI9cURYAX5KlQfg9Ogj0IYf/vlBhfA6tpnIcsjuD6jyPom+3rKQXxexOBRgHbRBfIf3z3lV3j9IHB6Ee1gI+RPx8fHv4nfYLVsKcEJCQv7MefPeFUKI+YCofogL7LS5V6rBAwN5q9et23bp8uX64qiwB/gFfZSVKgLTOrmbNurolL+TwCxUeI9DdrchU5G2kN4nFlxdUXz2ucJUeinAZnj/fIz3T6YyApzYJcUr1VhfCPkTSUlJH9h66eP4XbsSdiYm1hFCiNkosTUycr25B3ujX+rkqHHj2ouIA1dTCJaOfQfSsF+J/l9MgOiQ2lsbc2yaBtHVk4dcRnYgkyC8HSCADZFaGdo5g9gWCjDAe+dtJFqVFhrsy15MNnltghZmEEJAq06dysycO3eZrQV4xerVnYQQYj4gv53QWH/bzBfreeR9cWhIq4M9PCAM30AcDiNKLIHcOb1/1phj0w9AeOfobQ3IG0gdLE5RUtSCAgxQAX4Z526tQrOAM9HW83nrIz2KCSFgdXj4wxFbtty1lfjqd1MXL1+e9qWn5wtCCDELLtNnz26DC+yOmS/Y084hv8Qrxb8MpKENckKRGcB3WyQHrzfuG/guHoIrNfd8iIuoCwUYQDafNS2jfVcRAT6mz7X2Tg0oI4QACGgttAnesJkAYypT/M6d04QQYh78u3WrAgG+auaL9STyoTgFxCctoBKEoQfE4SyiKZCrkJdpuIVdX9SHAgzw/nkc5206trcVEeDTSBCWaq4shAD8TquF2E6AExJ+z9i/30cIIUUHT7O64RPtKHyyzDHHBYr/n74941zySyCaNSELIyEOlxQR4EvYnzF4ir+OqA8FGOA9VA+TIMbg3N1ENAVyARmKUWgPCyEA489q21KAMaEpSkQMQggxyyfaH814gd75efr0CcvDwp4XZ4MTIB6BcE6HMFxTRF7OIz+ieledAmw3FeCaEOCB2KryHrqKTEFrBlerJNLo66/deg0YsDwmJibfFvIbHRNzr2NwcLCYBUIovxWQLWa6QG8j7UTERYjT4ZVkfAKyEILcVkRezphuX1ekANtNBbgyzlkwzt0VRVogbkLIl+IuwtNC+JD4tm3uUVFRGaa7nFaN/neisHSidefOlYUQUmT5rYKEmGOBC5P8/iDEmVsgnjWtAnfPM9Hm4qLnJNLWJyPwIbsRYApwWdxJaIdzeBnRFMgdvIfCsRwyn7gnommaC37fpdio/SHfq21b/Xp1F0JIkQX4Q3NclEtDQu5s2LSprRCnBlWy5yEMW5AsRAUBPoZb19+3OtK9GAXYblaCK4Fz1hzn7oIiAnwP+7IZ+/QSr3AyeOTIjtsiI29Agq0++WHc5Mm/e7Vp87QQQoosv48hSUWs/OYtWrZsqV+HDlyOkQgk4UUIww4IQ7YKAoztEezT1+0v9XMT9aEAA5+9Qe44Z9/o/duKtEDcR7ZDzF/hFU42bd68JDYuziajzxYsXjxQRFyFEFJkAd5W1MovMtq/BwbEEwJwm/hlyEI8kquIAB/G7fQvjLeHu4j6UIBBm9O9XCHAX+DcnfNMVEKAs5F47NPrvMIJRHSeLdofUlJSLpw6c+YTIYQUjYSEhE9wUZ0t4kU5GnETQkxAgF+FLCRCHPIUEeBDEOCPxT6gAINu2hgDqq2f6AKMaAokF++lBOzTm0KcmsBevZ7fuGlTirXbH0yZLoSQIuLqWv+3xYt345NsUS7GUZRf8hf9m29AFtJNAqqCAOvL2DaUAkABVmKc3ocKLaaSh6Rhn94W4tSEhIV1Q/+vZm0Bxt93FNvXhBBSNNauW9c9cvt2/aJi5ZeYuwf4TcjCQc9EZQT4IB7Me9fOBJgCnOT/vj7CDtEUyQEI8LtCnJbNEREGFI0G20B+tbSMjHAhhBQJl659+rTGRXUXF1Whe34RVyHkr1sg3tEfPFPj4SWTuEDK7U6AKcD6++i0QgJ8FAL8gRBnfmbmHeSeDWb/3uwzZMirUngIIV97eZUbNX78scIP8P5n+SUE0vkeZOG4QgK8HzL1qn0JMAUY5+4t5BSiiABDxtGWIcSZBfhdRLN2sPBF+IRffy0thYQQUq6cCy6msXj4LcdyPb+EFeAuH+jioooAI/tQuXuZAmx3FeDXVXofYXsB+ViIs8pvWWSdDaq/2ZDfT6XwEEK+8vZ+bcvWrafQ+sCeX2JBcVHn4SWTuOxFXrI7AaYA69NETirUAnEJ+USIUxIbG1sZvwNvWrv3d+WaNVPf+vzzkkIIKfTIs+px8fHhBW19wLDvXTt37RpWgLYHwhaIhqbeTWUqwAgrwPbXAvG6YgJ80VMfp0eckoOZmV9DSG9bU363R0XdQPtDUyk8hBBMfOhYiIswdMrMmVWlYBAKsP70/gmleoAT7a8HmALs/6ZiLRBnkEZCnI79Bw64paWnJ0FKrVr9Xb9x4woRKS2FgxASHRPzVFxcXGpB5RepIIQUYgoEhOEookgFmFMgOAXCLDmG99IHQpyOJi1aeMTHxydaU343bNp0u3WnTkYhhBS6cb8kklzAC3AFUk4IKZy44Ol9zgGmABcNr0Tl5gAfxD69J8Tp+KJ58683bd58wVoVYMi2FrZq1R4pVaqMFA5CSGJi4ucFbNxfgRT1oiNcCS6DK8FRgIvYSqPSSnD5SDre2+8IcTrwLMws0/MzVkl0dHTOW5980lUKByHEo0qV11evXXu0AJ9aQ5DyQkjRKsCvQRaSkHxFWiAOYZ8+FvuAAgyGaLMMkM1PcA7PKdIDnIsk6n3JQpzxTupsRLNWZs+fv3XoTz+VkcJBCJk1b96Erdu2aRBg9vwSa966fgXSsAvJVUSAD0OAP29/ZYCLqA8FGLQ509sV5+wLXYAVWQgjG/sRj7wuxKkoVr36o8tCQ6P3WK/9IRuLVX0rhYIQ4ooL1og1y/Xljq3d80tYAX4RwhANWchR5On9I9inr9qc6ukm6kMBBi0OdXPHOfsa5+68IhXgLCTKtKIgcSIitmz5ISYmxiryi9/Z2oLFixdWatCgrBQcQoixR48nZ8+b96DyG8aeX2LmKRDPQxq2IlmKVICPQlyatT7Wo5ioDwUY+KQHFMedhO9x7i4o0gN8D/sSgbwkxNmmKHWx1uQHjCu9tmjZsu+FEFKoXiUPXEiTkbwHuOiWW6Dnl/AhuGchDBuQe4rcvj6B/WjjuzeotKgPBRjgA0sZnLO2ptXXNAVyF/uzDnlBiNOAFsLaMbGx260lwBs3bVolIqWk4BBCmrRs+T4+sd60Vc8vIV7J/k9CGMKQO4rIyxmISyCqihVEfSjAwDvZWAkfpIJw7q4o0gJxC/sTgu0zQpyGlatXN7LWg2+YMnFq7bp1rwghpFDV3xo7duyIfIBxLWFIWSHEMgL8KERhFsThuiIV4PPYj/6oKlanANtNBbgGztkA5JoiAnwVLRnTIMH1hTgF5erUKdMpOHijNcafJaD390BmZljnH390kUJBCAV4BEL5JbaWl1qQhtHIZURTIJcgMD9hv+qI+lCAAc5XXeQnnLsbiKZALiIjvFOMtYU4Bdu2bSsfFx9/yRrVX1R+74SuXFlHCg4hBKNTXsCFlGLrnl9CfNICKkNeeiHnFJGXK6jeTYG8PCbqQwEGuIvQAO+fqcgtRSrAZ5Cu2K8q4vCQy9euGTIPH+6HvtwsK839Hf95s2YlpGAQQj786qtaE375Ze/fTX3Yg6+HrFhx6JMmTV4VQiz+BH9gGc+kLu0gDCcVEWC0YvgvxHLIT1OA7aYC/CyyCFGlj/w43kMt8R4qK8QpSEpKSrD00seJCQnamIkTL77ywQcvCiGkUGNavovaseOfpj7k458PFkKsQKv93YtBXL6DNBxWRF5uY3/WIC+K+lCAAc7Zy/o5w/a+IhVgfTXBL1tkdi0uxBnaCeshey099UFfqOrX6dP7ScEhhNR97rl3tm/ffuFfPqmOTEtNdRVCrNcH/B6kYb8iAnwf2YF9ekPUhwIM0LLylr7wBM5bDqIpkH1of3ijqzbGIMQZBHiqNRa9WLhkSYaUKsXqb2EgBLdPlm6Pivrbyi8yAqH8EmsLzIsQmDRFqnd52B7APn3olx5koADbRQvEx8gBReRXTyreP48LcRYBnmZpAcZd2ZuTpk79QQghhbpI2yckJOgrvv2T/LoJIdavAD8NgdmtiADruQyB+co3JcA+BJgC/K0yyyAj2J94VIBri8NDnnjzzQobN29ejd+rFm1/2BEdvafqE0+UkQJDCOX3IWTRX11ckOIsbEey8kts2MOpP8W/CdtcVfqAIcB+LQ91cxGloQC3OtjdgPdOa5yz3xFNgeRifzZ4pwbUEIeHQE594i08+3dzRER2v6FDP5FCQQgF+Ou/urCwbKM2bvLk3QOGDvUQQmwnwHWR+RCHm6osZQsBDvZJC3xIlIYCjHF1+jLIPZVYBCMRwSxibOc5/gg00uDllyvMmjdvESTYor2/cxYsCPVt376sFBhCKL+VkU1/dXHFxsbe/rRJk+YiYhBCbNcCUQ3SMBjycFaVB+GwPyMhwQ+LslCAWx/vZdBbDXCuxujiqUj7zGlkEN7T5cShIb9Mm/b6ilWrNAiwxVZ8mzJjxu3vW7Z8RwoOIQRzfd/ExZT7FxfYbVy4LYUQG4PbxWUhm630h88U6eHMwnYW8owoCwUY7xsXnKvnkHl624oi7529mGvdEpXpkuLQkGFjxgTjd2iepaq/sXFx2qy5c8eJiIcUDEJIveeeqxsdHb3/Ly6um0grIUQBfPcFFYMAvweB2KWIxGQjq7FPCldeKMBeKf66AOvvm3XY3lPkvROH6u+7HQ4NcBXiyKupvgdBvWDJ1oelISGHq9Sv/5oUHEJIv8GDx2yLjMzd/ecnSv8jv22EEHV6gA2QhjrYRigiMbnYJiDfisKwAmx0xblqgvOUjK0qM4A3oi2jnhBHbis0INEWnvt7A9t2UnAIIXFxcU1xEV3880W1c+fOnEVLl/YSQhTDOy3gIUjMUghEniIicxnpKOrCCnCy0R3vmS44T1cUGoG2EB/mKovDQo4cO+aG36cxFmt9wMPpXfv0iRERVykYhJA+gwa9FRIWdmXP/zTn79y169SMuXNrCyGK4ZMeUALyMBa5iqiyItyPLQ93cxVVYQ9wcbxXhuA85SsiwFewP6OwLS8OCzl05EifxMTEbIuNPduy5XarTp3elYJBCNGystxQ/R0QFx//vxfWCeQdIURBWmR2LYbKWQDkIVMRmcmCzEzDbfZagdpIg6gHBTjFWAfnaKYi75d85IBnon9ntECUFoeF7N6zZ5IlF73w79YtVETKSMEghAwfO/ZFtDrc/Z8L6zjyvhCiKK2P9XDHQ2f6il5xighNDrLGM8n/bd99wW6iFBRgvW8ceRdZp8gdgzwkGh/iGvtkBBYX4qj9v08iOy0lv0gsWhfrS8EghOzcvbskbp8shwDn/2mUyrVpc+Y0EUIUps2pXi6QhxcgMytVERrsRwK23qjqqSc0FGAXxA9JVmUFOCQM7+FnWh5B24yjQgHuYKmpD2vCw7X+Q4f2loJDCMk8fHgiljb+/z5R7t2/P9q7U6cSQojieCf9sarXZEUEOB/7cQ7y2xu3tEuJUlCAIZquOEf9cI7OKyLA2chErxS8VxwVyu9jyElLCDCKVtr6jRvXvNGoUQUhhBT44qwH4d0FtD9lZ0pqah2xAwiB1HhAaIKRC7qAKlIFnuGdElBOlIICjP5f/aHJWXrlFVsVpj+cQ4ziqPD3qwvSEcm3ROtD/M6dv3/2/fevCiGkUBdo3/+5qGKwfVTsB0IBdkPF9UuIRJSpoqYpkA0Yt/V02yP9DaIEFGC/A0GueqsB3icbFfmglI99icT2M3FU+Pu1DHLOQr2/eQczM4dpmuYqhJACX5zPIftNF5MWvmHDhbb+/l+IHUGI74GuWBDD2AAiMR25q4gAp+LhPD9IcHFRAgow5LcMzktLSGeaQncKpmC/HhNHhb9jRyLZlqj+/jRxYnzNJ56oJISQQl2c7RBNj94DnJqePldE3MXOIMRvX9AfbRCQipvKLIiR6D8eKSNqQAFONlbV+22R3xVZ/CILCUBbhoc4Ivz9WglJtIT84uG36wsWLfpOCCGFujirIb8jmilLDh0+XFrsFEIgE98hRxWRGz2bUQWuLqrACvAjODdbFZoWctQTI/y8k/wN4nAQiOooS8jv5ogIbcqMGUW4lghhY/4AJHv3fy6qhXhdRgix717g1yAWK5EsRFMgKZCc9/Sld8WmUICx+psbPow0wvnYp8h74zbkdyXes696p3RxPAEmrpsiIqbrwmrWsWf4/61YtSpDSpZ8VgghhW7MP6y3Pfw6Y8at97/4opHYOYRg6kJNCM4gyMUtRSTnJNIT+1RFbAsFOCWgEs5DX5yPc+q0yHQZ6J1srCEOB9mwadOH0dHRF81dAcb/8yr+342EEFLoWzMT//sU6drw8B9FxE3sHEJaH+2hL4rxNeTigiK3ue8imzAP+CmxKRRgVOEf18+FQncHjqMi3bjl4e4u4lCQuLg4F/xu7WVu+Y2Lj9cGDh8e7VqpUjEpOISQzt26PRaxdetuoF9UgzRNcxEHgRBIxfOQX1107ikiOuc8ITqIu9gECrBfRpC+XPbXunQq0ht+H1mPfXpSHBHeYW2A3Db3im9INFZ9qyOFgxDy25IlPSO2bNFWh4f/3C4w0FUcC0IBrgK56ArZOKWIAN/C/oyBANcTm0AB1seM6dMfcB6uKvKeOIt9CcZ+VRBHg/LrjkxA8swpv/MXLsxpHxDwtRQeQkh8fHwfVH/vz54//zlxMAjxSQ9ygVy8gCQqMg0iD9sEbBuKTaAA49h/gnOQhuQoUgFOhvy+0vZYT4M4GhTgqsgFc1d/Fy9bNldEykqhIYQ80qNfvxWpKSl+4qAQArmoaFru9jqiKZCriNE71ViMAmyTpY8D9JYYReT3KjIddypqiCNCAV5oTvmNjY3VloeGxs+cP7+iFB5CiFu5cs+VrFzZRxwYQvTV1yAYnnrVT5GH4e4hy/WRV757g13EelCAk42v4z0QguOfq1D1twnEvLQ4FOT4yZMvYLLSPnMK8NZt27JfbdgwUAghhJAHrALXhWysUKQCnI9cQh9wsPVW/aIA+x0IdsN7oJs+FUQR+c3H61B9RbpONwYZxKEgaenpP0GAzTn5IQ/tij8W5EF1QgghFOCHIJz99AeOkHxFBCgM+/VS93PjDBRgy+KdbnTD+LmX9YVRVKn+Ynsa6eu5p7ObOBxk586dE80lv7pIDxk1am/ZOnVqCSGEEFKAlb/cUWl7A+IRDunIU+jp/x999wV7UIAt3vv7kGlRlAvY5ity/lejNed1Ln3skL2/nyL3zCXAqCZf3bJ9exMpKIQQQojf/mB3yE9v5LJCrRCbUAV+xic90I0CbBk6XBngAtF8Acd6sxI94BBw5HekB6rSxcXRoPyWRn41h/jq8/m3R0XdnzVvXk8pLIQQQghESK8Ch6pwG9yUs8gwfV4xBdgy+O4LKotzPkqhZY/vYX/+eAjSOz3ARRwNCvBTSI65pj78On16ghQrVkMKCyGEEAL5KA75aKfQIgh6kiHAH7U40M2dAmz2qn8xVFkb4nynqNL7je0FnO/WLQ93cxOHgnzw5ZflsfTxBnNVfzGn//jYSZNeE0IIIcQMD8TpyyMvgYjcVESAbyPLIWqPU4DNfq6fxbENQ26rUv1FFuj7JQ4H+fL774dvjojQpzUUWYC3RUae2xQR8aYQQgghZnogSq8CN0WOKVQFvoD9Cca2IgXYbOe5kj72DLmCaIqsBHga+RYPZZYQ4mitD69g8sM+c1V/5yxYMExE3MRcEEIIIRiJVg8i8huk5JYiApyD7NflCDFQgIuGZ6q/AcfzOxzLvQpN/biG/dGrv/XEEaEAj0Q0MyUyJTnZvO8TQgghxCcj0AMS/CmkZK8ilUF9m4t9WoTXr1CAi7LgRQ+DJx4wM7W5ZCl0fpOw/RgTP4qJQ0F+W7z4S0jreTPJbzTysBBCCCEW6g+tAikZodB0AD13IElT0A9c2zvN32BlAW4OKc21kgDr22FiZtqe723A8auN4zhdFfk1CfBZbIdiW14cClKxXr1qfQcPPoK2BXPJb3UhhBBCLEWLQ11dIZqPQkyWKSRL+aZ+4NEQ9KpiRSDAz0NKxyCTLB0I8DhsPzN/329AZRy7cTiG5xWS32xkCc5ng5aZXQ1CHK31oZuZxp5FWqXySwghhHgnBrhATPRe0ViTfGqK5BjSyycloKyQB63o6/LbC8ftpELnMQ+Jxr59DTl3F4eCDB09umtUVFS2GeR3O1JbCCGEEGuBJZJLm6YFXFJInPKxP4eQlqhSl5N/hHilGPXFLn7AcctUqPKbj1xAgvAeKy4OBUlKSioZsWXLFsz9NUfbQy0hhBBCrIl3ir8BFbrHICqT9R5cRFMox7FfnbyTjZTgvwHHpwLSBcfqBKIpJMB3sZ2ARS8eE+KIrQ/BZuj73WHrnl9CCCEUqfeRaCRbpUowchLTIXp7JhlrCgEAtDnd24Dq+MM4PgOQ0wqNO9NzH++jHcg7eG0QR4PyWxvZXET53aZCzy8hhBD2kJaGaDYz9d9qilUTzyOjcCv9YV38xMnpePVHAxa6qINjMlahB97+nEy8n5r5pDnoghcU4G/Z80sIIcSR+oErQl66IkcUlKrryHxUPZ/zTQ90FSel3ZG+rpDLF3EsfkNueCYq92HlGBKAvuSK4nAQtD28AHnNLGLPb00hhBBCVAISo/eUDkXOqSZXSDb2aRfSAr2lZcXJ8EkJrIDvuyW+/2T9WCCaYjmDfRvsleyI8kvqv/ZaaTz0llwE+Y1SsueXEEIIaXWil95bWhMiMwG5rKAE5yN6S8RE5BlxAvxSggxoT3ke3++vyEX9GCh4Ti5hH8dAfqt1ujnQIA4HWRYa2j42NvaGQ/b8EkIIIX4HAw3eScZHdOGC2NzDVlOwL/g+tlFY9re1d1pA5Y7XHU+6fPcGu6DiWxXfZ3vTrOYsBc/Df1fw+xmtGfXEISHbIiObov3hssP3/BJCCCGQmpf0vlvkLqKpGOzjdSQcIvw9+k6reaba/9QB791/jKarAfn1wfe4Gbmh6LHXA/n1n4v9fV4cElKlfv3nRo4dezIhIaGwo85qiL1ACCGE+KQHGCBhugSvUlmCTQtnXEVC8doL+1xT7JDWh7rpFV99uoMfEo7v5SqiKZx7SBjk9xVxWAjaHvrFxsU5U88vIYQQzpvt6QLJeQGZj1xXXMjyEb1veYNnUpc+qEy+o493U38xEmMZ7GdD7O8A7PsW5Irix1nP78gC7Pcz6Bl3FYeDaJpmgMD2QXILIb9b7brnlxBCCPHc08XVtFrcFEjPRURTPdjXLOQQXoeiqtoB+98Afy6BuIkN8Ur116vq7pDdktinp7E/RmQ1chTJsYdji1xEJmN/67c61t0gDgkZOnp0d/T+5hRixbftlF9CCCGONCe4MqRnCOTnHKLZS7DPN7E9gW0EtsOw/RppABGtjIf9SrY50sNiEuedHOAC0S2Fv7cqogtvU/y9Y/B6O3IauY1odpSzkPdB2FYVh4UkJyWVjNy+fUN8fDyXNyaEEEIgcxVMVctMBcZxFSa5yD3klFeC/3rTuLcgxBNf+xjbV5H6eF0D24reycYySAnc5neT/wHy7I5/VhIP35XFQ3iVIIY1IbdP4L99A//tZ/iaD7bdkZ/xtS3IOSQLybO745b4xz4fwvfYBdvy4rCQC2fPlobEzi7MtAeHlV9CCCEEMlgOItQSIpSEZCOaAyQPuYIcRGKQdUgosgiZi0xDJiNjkXHIz8h0ZB6yGAlDNiDxyGHkBqI5SLKRREiwN1JOHBbSvE2bUjPnzp3Lnl9CCCHkL4AQlUQaQojWIibZc7QwpnO7CvkILTDFxKEh6zZseGTj5s232fP7DxBCCCEQpNqQo8HYHil8SwSjoPjmmyrZ+tLGtZrv7mwQh4ZAYmsh0Q/w0Bt7fgkhhBDv1IDiEKZvkA2m/lrNrsPcQTbgfH6Fnu9i4vCQ9LS0OqZKrlaARDr9IheEEEKIadTYKH26AavBdtsHfRoZjtQX4hS0Dwx8eMny5ZGo/Bam55cQQgghPmkBpSHBzUxjvu5QKu2q6huJc/ctFhEpLcRZKNGsZcv5W7Zu1Xb/i/TqgoxV4f7b81tLCCGEEGIC+KQGuECkHoZQ9cB2F0VY6dxG4nGeumLrZBU9siw09H3I77V/q/7u2bNHC1+3Lnvs5MnbQlesqCaEEEII+WtQSXTDXNynEX2J3z2mGbwao8xKeYlIP+Spjid/dBHiVEBs30SOIv8uv+vXX//K0/NXcXevKIQQQgh5kLaIoGKQ4JdMq7AdRCjCtksOjv8BZDB6tl/w2xvsIcRZ5fcQ8q9tDxs2bdICe/ZcIiIPScEghBBCCFZN00X4NcjXRH1VMatOjGDumT58TMDrV3AeigtxVvl9FTmCaP+WbZGRl9r4+w/8xtv7YSk8hBBCCIGEFUeeRrohkch5CqpFkm86tluRrljB7ylUfUsIcVbc12/c+DbE9sSDyO/OnTsPjxg3rrH+34l5IIQQQki7C30NXin+lbGschOI2jQkHaJ2n+Ja5NxH0nE8p6DS+x1eV0IMQpyZWj8EBAzeHhV1/gHHnR1EXhVCCCGEWHJyhFGvCr8CUQvCdh1y+cEfmmNMfdWXkXC8DsT2JZ+UALY5ELl6/frDq8PDI8JWrtQfaHsQ+T2EvCaEEEIIsQ6+GUEumB5RHXkLIhcEkVuF7TFsbyF5iPZHmFzkFo7NUWQlWhsCsH0TX6vWIjPYRQgBaGOogYpvTFJS0j/Kr14V3hEdrcXFxR3F65eEEEIIIbYBt+9dvVOMpb2SjY9B7LxMbRI7TauVZTuh9GYjp3EM4pGpOD7N0df7qGeSf2lUe13lTxACsa2NxDzIpAe0RtwfOnp0Qvd+/Si/hBBCiEr47gt0hfRVRc/wpxDBvshcJALZj1x3QOG9juxDNiNzkD743j/xTjVWbne+r4sQ8hc0a9Wq3M/TpnWE2G57kIfd9uze/fu02bO7i5tbdSGEEEKI2ninBhTDrf+HUQ19DfkaguhvGvO1ATmM3EFykDxT8lWa0PCn/cpFbiOHkHXIBHwfXZCvIfyvospbyzcj0EP+GUIMmyMiSkVu3z4f0x7+dWljU64jTcV+IYQQQghaJkpCHKsh9SGSb2HrjXSHSI7Fnxfi9VZsM7A9jVzC66vITeQOcg/JQrL/JM75BZDZHCQbyULuIXeQm8hV5BJy2vR3b0UW4vUYpBuqul6m/t362M9q3knGklIACNE0zeWdzz5rs2DRol16ry+qv//Y8hATE6NFR0dfx+sm4lgQQgghxDO5iwEVVDdUij0gmPqkiVJIGbQRVMPXnsXrj/H1FhDPQGx7I4OQkfj6eGx/RWabZDUEWYvXm7DdhO0a/Wsmqca/46//u+NN/+1ApLfnf/6ffvh/f6z/XahYV0M/c5n/x95dAEeRrW0c7wysuyuy7gKs45D1wm0tuN0P2HB3cQjuwR0S3CFY3CeZmeacCG7ri7u7z/c2NaHmOgyzyQD/X9VTLXHKnjq8fdrzO9wu92+VFAr5pV2Q4SPgjiJF7tJad3E4nWdN0/zf+/tqfXZCZGR2y9DQOgYAAABwPTFNs7pscTZNKXVeX9nIwzkZkejx0IsvPmBcLwAAAACt9QeSuZI9V/JiC8/nnJd0Mq4XAAAAgFLqQU/5/U3ivpK4XC63yzSPbfrpp04VSpUKMq4DAAAAQKGuvXuX8GxtduZKy6+18rs0Ojr2rTJlqlgPyhmBDgAAANj8xx93LVy8uK/kN88ow9Vkcm5Ozp1GoAMAAAAefvFFm9a6nSTVKr6SK171jYmLuzhj9uzIXTt23G0EOgAAACCsb983p86cOV7K7BWPO+SVX3kZxtqaISGNQpo3v8cIZAAAAIDW+i1JE6XUgeXLl1+4muKbLZHzDPGUfKsgI4ABAACA4ltU0l2yTuK+2lXf6JiYoxFTp87auGFDMSNQAQAAABmZmbdrrYdLsnwpvp7j7+MjIj6Tb3e/EYgAAACA3Tt2FF4SHf2Kw+mcbJVYX8pvWnr6eSnQP2VnZ5cyAhUAAABQp379slJcu2qtT0ouXG35tWZ9pfTu6zVgwOBHX3jhOSNQAQAAAPJgWw3Z3WGf0+l0+7LyK1/vnr9w4WFZOa5nBCoAAACgRLlyxdp17TpEVm53S666+Jqm6ZbSfG65Ut279Or1gRGIAAAAAK31YzKvW9rpcm1It9vPX23xtcpyTk6Oe8qMGWs/rVEjNFBfZwwAAACK792S2pI4yUVfH3RbEBW1PzklZVJcfLz1UgvKb0ACAACg/LaQzPEusz4WYHu9hg2ryLe8zQgkAAAAwMF9++7oFx5eZe6CBRmyS8NxX0tvpsPhdrlcmxOSkurIdXEjkAAAAACjxo8vLnO6ZbTWq1ymeUTKq88rvvJ9DrRp3z5ZVn1LGYEEAAAAaBkaWmPWvHmhS2NicmRU4eI1jDlYx3OSBZJvjUAAAAAANA8NDfLM934pq7yRs+bOPaGUyiuwPic+MTE+JS2t6Znjx20GAAAAUNBatm17b2x8/BPDRo+eb5qmU2u9wzOu4NNqrxWXabqXRkdv+dvf/941csaMxw0AAACgoBV57bXnf+zSpfbIceNMKbv7HT6+uc17P9+k5GR3XELCH2MnTUoMHzHiWfkxtxgAAABAQfqkevXXJ0RGtu7et+8GKb0XlFLXso2ZlUuvL46OjU0dMGTImEdfeOF9AwAAACgoWusgiU3ykKzSDotavDhHtiBz5+bk+Fx8PbkYn5Dgnr9w4RzTNEOeKVGiiAGggAEAQPm9T9JMskKyymvV1ucV30yH42JqWtq+kObNZ0+ZPv2jrxo3fsgAUIAAAKD0PiIpK6ki2Sw56Yc3trlN03Sn2+3re/bvH1nu889flx91uwEAAAAUYPGtJfk/yfy8EQV/FF8ry2JiVsTExfV/rlSp5wwAAACggNg8xbeSZJbkkMTtz8iDbVvGTJzYq1W7dq8ZAAAAQEHQWt/mcDie+qxmzVHJKSm5cr3dX4XXs6PDKZfLtbXv4MHt5DXIrxTkVmYAAACg/L4r6SM5lpGZed5rCzO/bGUm33Nl1JIlHRu1bv2o/LhCBgAAAFAAboucNq2abGEWprU+4s8RB/me7oTEROt1xbFOp7NrqUqVHjMAAACA/KSUCtJa3yq5V1ZmR6Wkpi6Vbcf2yrl/xhwk1spxZmbmhYlTpmwYOGxYq/otWuRv8QUAAACCq1Z9WHZbeFJr/Y1kgxWvEQW/rPY6HA53Wnr6kWmzZv06efr0L5u0bl3MAAAAAPKLyzQLa62DpZx+Iq8RtstK7wkpu6f8OeaQV57nR0UdmjRlSlKJsmW/s2dm3m4AAAAA+eXHLl0+XLRkSdfsrKwhWutzeWXV38U3NzfXnZiSsmvewoUTPwgO/k5+dGEDAAAAyAe2Zt9/f/uP3bq9o5SamZiUtMmekZG3OuvXWLs5mMuXn5Mxh91SfltOmT27vPUgnQEAAADkhx3btj1dpW7dVhMiI9dJOd3uz7le7++llHI7nc4902fN2hLWp0+b/kOGFDMAAACA/KC1LiqpKmko2ecyzbOmaXpKq3+3MUtKTnbHJSSsd7pcc2uEhJTrHx5+l+ctcQAAAMBf6JFH7ku321tlad1Na514ZSXW9xVf0zTPz4uKWjBx8uS+VerVK2kAAAAAf4XP69YN0lrfKXO2d06aOrW4Umq2XC+T8ptqmuaZv6LwWkeXaVorvqemTJ9+uGP37uE5OTmf3FW06MMGAAAA4E+//v77szor6yWt9UsOp/MFGTeoK+e/SH5brtSWy0XVz6U32/N6YnkRxjn5uX/KaMMKKb/v9ezf/xnDMO4wAAAAgGultf5IUkdSS1JTVllD1q1fv1POT3nFa5XX/zO9VvmNjYtzL1m2bE1SSsrStp06DShZsWKxLj163GoAAAAA1+KR55//SFZ0e0rp7Ke17ivZLHEXREzTdEdMnbpPKdU9fMSIrm+ULv22AQAAAFypeg0b3rkiN/durfWl7Ny+/a53K1b8YWl0dIIU3gS5Fx+1ePEvTqczHwqu5+E1OSql3A6n0xpvOJGRmXli6KhRa0ZPmNBErj9r0KJFGQMAAAD4H+78vmPHVzds2vSaUuq1DevXvyIvnajaZ+BAJSMM1ozu5rzISMFJl9d2ZNk+7MXry1iDdZSH5NxSeLfJivPGpm3aRIc0a1ZePlbk6yZNHjcAAACA/6JY6U8/raKU+tpK/6FDh42PiDi6avVqazbXymm5f1ZWVP/jjgr5UXqtWKvLC6Ki9svPnTMuImJmtW+/fX/YmDG3vfzee7cY/wwAAAAo/NhjTxV7882QrNzcQVIiw5VSQ8ZNmpQyYuzY496l1q/F1g/ld8bs2Ufk95yQlp7e7rtmzWoZAAAAwN1FitweOW3afTKmcF+uxJ6ZeV/JcuVaLo6OTl6xYkVqltYpyamp2bPnzTuopeB6F0z5mgItud6vH3Y4HNY871E5P9Rn8OApKWlpn3YICytt/YnGzQkAAACPv/zyE2vXr39ba/22lNe3pfiW/tsPP8yQh9B2SKHdLvcvJTUt7bhpmpdXdK2jfDxwVnc9xVf25nXLPPGfGRkZq0M7dFjcLiysRG5u7pPF3nqL0nszAgAACK5Z8xFZFf1Wa11fSmKjfuHhCStWrjwj12c9OScfv2itoMp5QMd7tXnh4sU/y+89e9CwYaPveuqpkm632ybzyIUNAAAA3Lhkr9ogKYVBWutLua9YMZuMLlSTHQ6Gy/VIpdTI+MTEpXL0YbeFgMrFTIfD3aNfv/Uul6utUqpN9W+/LW0AAADghmL7oXPn+2X/3Ae11v+Qndu23dN/yJDvopYsWS5jCQ65dylKKYfsrbvLe9eFrOuk8Ho/QGeVXSm6R1euXHlwSUzMptCOHVuZpln68RdffNW47gAAAMAmefTJV155dVF09Htr1659Vyv1rtb6cjauX1+yaevWzcdMmLBRVnj3yL3d/5RdUhCPmabp+/ZiATTSYB0Tk5PdMnf8izyEl92td+/0z2vXrnhg376HI2fOfNgwjEJGQAMAAEBQta+/DpYy2kxr3dQ7spNC1/ZhYVGyO8Fm2VnhguyycF7u/0uUUhcCey7X9wfXrHNTVqknRkZudTqdk9dv2BDRZ9CgcW+XK/f60piYQnUbNKDw3tQAAECQFa/zfyfIO0Vfe832QXCwrVKVKjZ5MYPtj82bbdt37bqUDRs32pRSNq21T5EVSpu8QaxQ0bfffuTWxx77eE5UVJ9Vq1ZN1FqPtyIFb7ysZE6dOWfOtv/0X/1524dlWfdu8CilLsrxglXop82adWRCZORw+TdoIWMOLZ4vWbKyAQAAcCMJevTRoDuefPIe+S/tx62tqbTWlyPznU9MnDKlSFi/fs9VDwn5qEb9+h9+Ua9e+co1anxSuXr1T0t//nmNsl9+WU1WBZuXKF++qVzXLFWxYsN3K1f+7r3g4G8qVq36RUjLliXKfPFFdbnfSN7oFfbK++93fLN06fA69es7mrVpo1q3a6fmzJ+vNv30k/r1998vZc3atcqitb6mSIFbtWTZsm1yvPjvtgfz3LuhI3/j5RXdvNlde0bGSTnfK/f3Jqek7PqqUaPJ8iBeOaXUB5169ChlvS7ZAHADAwAK8G1SgL+SAjxXCvAyrfXlSHlcbT3opJQ67jLNU1bk+rQpR8lRh8NxzOF0HsuQQiW7Gpy0ruV4ItOKw3Hc6XQelc87lHdf3vR1Jt1uPy3Hc7IC65Zzt10in2MVtbz4dUbWT9/runlIzXsbMjm3tiK7uCwm5g+5dimlTNmSzP5+5cot5Pxh+fyH5WMPGYZxh3FzAAAAWus7JMUlH0hqScoYNyEpwEFSgG1SgC+PESQmJdlefOedz2SFcGSW1mO1J1KqRsvoQNyipUvPFdwKKskb0/C+jo2Pdw8fM2Z3ut0eIffGrFu/fsyXdev2uv3JJz+SInxprKRl27Y243oDAP/P3j1Hx/EocBSfOKmSlLFqN/7Ztm3btm3btm3brG3b8+4+o+4mb7N77zmfmpP88T1zBiuVmQM3CclIQQ76YHucgBvwFD7Eb5iJewJbkfIuuuKKPRjMB3HMDlyC/fEpQixYlsh1p5Gbrfh65QZgAo3dz/52fBb945hFbsp79sUXZ59w+ulvcq3zMQzhAyNuv+eeA3lyxeaBmZmZJdzobY4ybIDDcA1ewvcYiLGYhXAJ7gssWh+HEtSgemkYcpWckTx670MOGRh5Ni4jbjQ/vlRcKjGOM9JzI958663FnzGaV+TsaGM8OeEfl25gZW9AC7kcZD5fj1nS/5nLTsacfu65g/Y46KBzuCa7MnLcfvzxx+pb77mnksNcgMDMzMwcXkdjCmZgDhYgXEH3Bo2dpRR275790KOP5nJ5RS4fgyXq/+ef2fsedljnin79Ti/v2/dMrmO97+133nmPn3v/33Fm+D0G8nfcWDfny1UYwZEhy5ntlRqyjPfwyWeeGcXX/V9/880f+b1//3ct38effPLe5jvuePlVN9zQfkn/b66xzuXnczhOaTAzMzNb4gA+D+ESJMgANq55La1cb70Tvvnuu+v4mK4QRut13Kh38/0PPfTbFddeO4czzHfzY8v9fZy5vY5LEa7OLS/fNjM/vy4zL69TYGZmZuYAtqbSultuWdupsnJHvpkKMzMzMwewmZmZmZkD2MzMzMzMAWxmZmZm5gA2MzMzsyiPvzS0QGt0QD4KUYxSlKMUxShCAfLRAW2RjSykOIDNzMzMLNaGXioKUYPNsA/OxO14GZ/hB/yJEZiIaX//eiQG4Td8h0hv4xFcg5OxFzbHmuiKNg5gMzMzM2vscdcBG+BwXItXMABzEDaAeRiJz/E4Lsfh2AIVSHYAm5mZmVk0x1wKWmJDXIH3MAhzEP6fzMFwRHoUJ2JNZCPFAWxmZmZmqzLimqMfzsAnGIcFCGPQLIzBl7gYa6M9UhzAZmZmZra88ZaDjXELRmAhwiZkIabhPZyIKmQ6gM3MzMzsv0dbS+yChzAGYZz4FTdiE2Q4gM3MzMwcvqmow8MYhzBODcW9WAvpDmAzMzOzxBy/ZTgXQxAmiKE40AFsZmZmlljDNx074mMsQJhAJmNPB7CZmZlZ4ozf9jgHoxEmoG+Q5wA2MzMzS4zx2xuPYy7CBLQAlyI5vgewmZmZmcM3CVvgWyxGmKAmojr+nwJhZmZm5lMedsZAhAnueWTH9wA2MzMz82a3/TEMYSNZjNkYiZ/xEV7A/bgO5+IUnIsrcSsewDN4Ax9jAOY0wOUP+yMpPgewmZmZmeM3A4c30kst5mIcXseJWA9V6IFy5CMHmf/1b0xDc+SiPYpQgd7YCEfgFnyAkZixGtcv/4Ae8fkiDDMzMzPHbzL2wwSEDWQGBuAlHIdeyEZqlP8fWchBMTbACXgBAzET4Qq6FpnxOYDNzMzMHMBbY2gDnu19C0ejNzKQ1Mg39GWgD47D4/gV8xEuxTjsEJAD2MzMzCz+xu+6+KGBru39GSeiOIb+v81Qi0PxGKYi/C9vo4MD2MzMzCz+xm93vIswyibgBvRBSgz//9tga7yE6QgxD+cE5AA2MzMzi6/xm427EEbRTLyMTZHVhI5FDnbF2/gO/RzA8ZeZmZn5oovDMANhlEzFBWjbhI9LW2yIVAewmZmZWXwN4Hr8gTBKpuBktAwsxgawmZmZmWOrHZ6N8uuCj4nVSx4cwGZmZmaOreMwC2EUjMFhyAgsBgewmZmZmUOrB75EGAUjcCDSA4vRAWxmZmbmq47Px6IoPe3hSKQFFqMD2MzMzMyRVYmhUXrBxYNoFVgMD2AzMzMzz/7eGaWzvz+jb2AO4NV7DF9L5KMzeqIvqlGPtbE+NsKGWBs16I0uKEUecpEamMXe53gKclGKXqjBmlgXG2JjrI+1UY9q9EEn5KFFghyjVuiAMnRHNdbBRn//uga90AlFaIsWSAr8HPsLe3cdZMXR7nH8rguLu3sEd9c3HiwOLxrB4+5B4kqIB4u7InEPVkhwWHwhuOsaK32/b9XzxxYFy3J65pyZc56n6nP9sjN9Rn7T09MdjXKojXPRGC3RHl0LHGPt0QpNcB7qoqp2YkVS6bRn2x2a63cYov9PSwNw0RcZaYqL0R+34QlMxnTMwwqswxbswkGkIxfZOIitWI3/1a/4Bh/gWVyPdigd4cdRvISnhhKsLsCl6I2r0Q+DcRNGym9xN+7CLRiBG9AfPaRNz0HZIm2AhpFa0t63ynH5Pn7BSvyLvTiKE8hFBg7JMb8FqZgrx/ZbGCf/1rUSbEqHQTsVk325Ac9gKr7C71iCNBxGDo5Iu62Sdvken+JtjJfjuRHiI+j8roML5Bx+QtrjDyzEajmO9iEDuUiX/34rUrEYszELU+QYG4Wr0Qn1kBhO7aali15MQC6MpXdRSltVA/BpjrNYVEB33Ckh90cslRvZERgXpCNV/tYEDJDgFh9G53CMtG8y6qCzBKNb8ZQEiW8lSCzGOqRhmwSs/RK2jiPrNNeDHGTiCHZIm/6vfsZ7uE8CXlXERXovnLTBubhVwu5cae98GAcdwEo5vl/DSLRDCqJ90MtbCl3xiIT7lQ7NRHRIQvPnuBcdUSKcOmjknK8tx9hnmIc0ZMI4JFdC8nrMx1dyTemL85GMGN81npaWvBZZ5tDQh+baohqAC5ZcHOtiCD7AKuyyuMHZysMhbMDraI5EHw5ZKoXKcv5eK8fIx1iETdghofY4coLUthnYLeH6I1yHGpE2DaI85PXEu3KcHYcJoqMStP/CA2iB0ojx2DHcDM9gEXYhy91jk3OCkqBdy8+hTX7PzpiI1BAcYzk4gDTMwQu4DFX9dD3V0nB1D7JhLGRixCl6fLQ0AA9CGrId7/mylydB4Vm09mqPsPTk1UMH9MV4fInVOCrBIcdj7ZuPTKTiCTQN9+uDhJIr8TPSPfJ75GAfZmEwYj3QY9lUjoktFm8ebZzAErlnVfPZMZaE3piOQ8iD8YBcZGA5Lvd8Q2ppyVPwrzCWlqCytqgGYPsHrJBZhydxvsdudrdjCv7GLhifWoq7UTNMhzp0wzQJJcajZiIphO3UUK5lKz3ycJCJHzAAJX1wnJ2HF7AbxqMOoq8fzlstDVa9cNyBnp4HTtOzoKUBuD/2w/hAvgTNjojyyKv0AzBhIgu/YxBSwuTDtvp4Dps83va5uAcxIWinyrgf/yDHg21zAJ+hg4d7fftiDvJgPGwN2updW8sPr1Keh7G0Gc20RU9TGoC7IQ3GR1agN6I9EIDl4SGsHMKXaOXz4Q6j5ViRUOdpx0MR8GQWhi+RBeNxS3CJx46zkhjrowfhP1DR0yevlpYMVl8KY+m1QnpztDQAnyshwfjMZpeW8tYALLAQnX14PlbDW8jwWVvXCHI7XYDZMD6yDlci2iPhd5zPjrMPPX8Ca2nJvKu2X+LvRR9tzUJKA3AJzIXxoV24GbEagF2zCN388oGcfIz4sWd7fT3QUSHz0Q7AGhgfSsNAxIU4/I7BcZ8NcXpU79hanp870KG5f2eivLZoIaUBOArfwvjUVnTTAOyqZeiOKB9MGTkD+T5r3zzcEKQ2Ko57/PzBptiBEUgI0dSRD+KYz9rsAK7RO7aW98ev2Q9/OIZbtTU1ABdh+yciF8anfkQVDcCuWokLvBqCZWGJP3zatpvQMUi9ls96ptfS3j78NwTH2qXY49POggaevplqacna3ztgLGwo4sGupQH4LmT6fPaCcYjXAOwiimrowfOvOxb4uF1noVIQVnS7E+kwYeQfnB/EY60ifvRxWxXTO7aW1wPVcByFsfCnrvhSxNIAfDWOnMXX6psxH9/iPUzCq3gRT2EsHpJQOgHT8AV+xRaXXlH/i8s1ALsqD88h2UPnXiMscnlRhrX4EzPwAV6T4/xhjMEzmIi38Qn+wsaz+DjquSC0U29sd+mY2Czt8zWmyDHyKJ7Gm9ImPyHNhXM/H28gKUjDxe5wYcaMbGnD/9V3eB8T8Ji041N4WY6v9/EFfsMGZJ1FO30g46a9W1paEibyLeeUnFjEL2W1NAC3xIGTjp9MHMRiTMGduAbd5P/+HFRGKaQgCXGIOsUHNyUkLNZEa9yID7DF4Y+VvkBZnwXgPGQjo8ASufMxHe/gRQlaN0u7DcDV6InL0Q8jcJ/cKCdhHg4hy4XAsRMXeuS8K4UPXFiZ7TAW4HlcgaaogyoogyREnTTfcAJSUE7+b1vgPxiMCfLvHT7FojP70d/ldmqGBQ630X58i2FoidqoiOKIKRAYi0mb1EArDJVAvB25Do5t7R+E460JVjn4YLUbH6O/HC/noCpKI75g8C5wfJVGBdRCc1yMkZgooXgfsk/z9+719PLSWlpyAfnegXXVBxZxvJ6WBuCKEkb3SuB9VYJWI5RHCmId7kkpjnoYgzQH56/t4JMAnIe5eAO3oxeaoIq0eSkUL/BgEX2G9oxFYoEQ1kTCyXtYjzyHVywr54FFLu7EMQdD3Wo5l9ugPJIcnNO9vATF2zCrwBC3NTjfxXaqhM9gHLIRj6MpSiEqwHP/fEzAThh7lMtDIeRBNNuB4Vrz8SAao7hD50IyyqARbsH0k95CZMscyt4tLS25sCxz4Im4kbamBuCzXNK3N8ojGlFBnPGkk9ykjzr0ij7OBwE4Q0JAFKJdfGUbg+Z4FVsdXKJ2dCgfsKV3db2Dc0q/hIZuvzUr0CvaVQLgs4hz8bx+wja0iWP4BB2d6kWUXs3LMANZtue+tGeKix8QzoCxsA1jUQnRLj8cxsvxfC9+xTrU8/SNVEtLQojtFDWLUUZb0y8BWEt6L552oEdvFar6JADXD2L7xuNiB1f9WoL6IVwk6HuHQt076Ib4UM3D7WII6ot9MJZWYyTKuLgU8wtId2B4TjeXtrEzNljOwDAYMSE6Xy70/AdwWlry2tL2BvW2xYcqWhqAQzmm8zlkWIaaIRqAC10l7UPkOhAeR4Vg+xPwFE44MFzm4XDtKJBhMHNgLC3FpcGY+tP23BePI8GF7bvVYhjRUdx15vCrpaUh4AEYS8P1AzgfB2ANwW8h3/JjuFgNwIWG4C8dGBf8ERKDvO2XODAH617ciaQwPo+GOjDf7yJ0D/K5/7xlB9ByVHdh+MM0m3nKizZmXktLV4B7EcbCcXTR1vRxANb2bISVljfuWhqAz7hk8G8wFlagZZDHqn/owApiIxEfxudPJfzuwOp/nUPUc/215Udm1yHKyQdGiyE36bizaH9JS0tXgHvfgXXSm2lr+jgAa3vG4DZkWnzU1F0DcOElU3wdtAwbQ4O84IXNjCFHMQoxETCP/BHLHvKrQ7kQlMXvnI8vkeDww+J8iweu9mf+K1paeuOvjh+slyzVFeD8H4C1TWvjzwDb9Ahu1ABcpA8PP4axMBUlg7CtcXgJxsIU2dawLZveSpGLp5AY4gfgu5Ft8cFZCwe3pzHWWTyM1zjDn9DS0pJpkRbDWJiHutqaYRCAtV2ftmjX8RqAizzrjM1crOvRKEiLtay2nLWiRQScM4OQbjletbbPg3w2xji4La2xFyYA68L9oUtLy8kVe9bCWPhZPgLQ8nsA1nbtZRHO3ivSnKAagFPwlWWPYY8gfBtxv8U2HsHwCDhfKuFHy6EP13pof26x6AX+CWUc2o5OFh/mbUK1M/wJLS0tWSrSdlWsr1FRW9PvAVhLFuVYGGC7/obaGoDPXPK6OcNizOXtiHFx+2phqcX2fYJSEXC+XGg588MsL/VWymqGSyzmA2/l0HZ0wDGLxS+an/mvaGnpDb+dA0tDvofS2pphEIC1XaPwbYDt+g8aawAu2kdHlovvvIokFxd0GIpsi97fHhEyg9AYy7lq+3tsn6Ll2MoPsDf7Soe2o4UEWROAwxisV3MtraK9ajkAY+F1XfEljAKwBuC3AryprylyD5AG4BJYZHEM/+DiimYJlkM05qJ0BJwryfjVop1mo4wH96sP9gbY83+Hg9/mrLBo23fO8IZES0tLluS0XQr2GcRpa4ZJANYAPDbA3r80dNAAXOQZFiZa9B6uRzkXx7Wutxj+cCdiIuBcqY/tAbZTHu5AjBdng7H4/V9GvAPbUAd/wwRoHTrpFV1L60xjuOyX+HxEWzKMArC27YgAx6fuRncNwEV+0OhvMczgIBq4uPLbfp0T/YztNBhHLX6/th7drwT8AROA6ajswDZUxnQYC++jvF7RtbQKv9gbS3drS4ZRANa27RPgjf0ILtUAXPTvDywWHjmG3i5t1yMWX+BPRokIOU/etOjB/w1VPbwozkTkBrhSYSMHtiEez8JYSMcYFD/1X9HS0pv9RciFsfBgGLdPY2mjC87SRaiuAdiXv3mbAFcry0EfDcBFX+3KYl8ycSuiXPiw6yuL4Q9DI+QcKYfZNnNmI97Dw6CGBvgQdBTdHdqOa21WTRTHMU57grW0Tn2S/QcZMBaeQEyYts8XFu1yhwZgX/7mNbEvwLa9RgPwWS08sMJi4YGHXQjA9S0WBtqJSyLkHOmOzRYPL329Ph+4xX1xiIMPiPNgLGXgXbSUf1pLS0tOsi44DGNhAhI1AGsADqPerT0Btm3RJ/XXAFzeYhGFE3jKhQDcx2JayEVoFCHnyG0Ww0Q2o4vXA77F/MaPOPQhXDTehHHIMvndyoPzRktLb/YdsRfGwiT/j3vTAOzD3yYRJVAa5SQcVkZV1BDVUBkVUQ4lkIioQv7dshqAgzYV2lSL1eAmItrhbbo/kDlgxTcoFSH3jRcsl84/1+P719pidqTnkeTgNzrbYRxyDH9jACrI+aOlFdELYeyAsfARymoA1gDs4v6WQh20xEW4EU/jQ8zE71iI1dgqIfEAtiEVi/Cb/N8/ieHoIcd/fZQu+Lc0AAftAeZpi2m0pjh5A5cPj163OK8mRsg9Ix5vW7TT50jy+D7WsZjh4g0Uc3C6wJeQB+OgdPyF0WgUeI+1lpYuhfwtKmkA1gDs8D5WkZD6CN7HH9gImTnAWi52YA4+wHjcgCtxUANwUILUoxa/36cOB+CS+MDiY6NbIuSeURIfWfxui/EwHvKoB/G8xRCP91HCwfY+B0tgXJCHZbK/vWRubS2tiAnATbEaxsIvqKEBWAOwA9MPVZIA+jL+wg6YIErHVuRoAA7KUrr3WfxWMx0OwBXxDUwAduOKCLlnVCp0jlr1NUo5PCvFYByCcdFO/IyHJBckaELSioTVfObCWJiHuhqANQBbvOY7B+OxUgJeHozHaQC2/8jnNou2/t3hAFwLv8AEYBsuiJB7Rm38dtq2UD+jrAvLTj+K4zAuy8IWfIw+qIxYTUtaYVfymnkGjIXlOF8DsAbgAPajAe7HWuTC+IwGYPtV90yA5iPGwW05D1TAMxu0i5B7RgMsOG1bqHko79JHo08jEyYI8pEh59l9aIcUTU1a4Tae6x0YC3vQSgOwBuCznAP2Xizyf/DVAGyxP0Ms2ppyNAA3xyqYAKyPoCnQWhY6bE6tQCWX2r4MXrToCbaxGVNwVVh89K6lJePwXnBgIP2VGoA1ABdx25vha5yAEZEZgDUA9/VQAG6PLTABWI3aEXLP6IStp20LlYYqLs+Ic5vFx+u29uA7DEclX0+lpqUlg96NpUcQpwFYA/AZPua4CPNhRGQHYA3AV3ooAHfHAYtFBipEzvL5hcySovaiehA+GL4Af1h8sGvrGJZgtFXg19LywDi8bBgLn6K4BmANwKfZ3gQMwgYYoQFYA/AVHgrAl1tcBxejWITcL3oX+vZGHQ3WrEjy4eZTSIUJkSz8jgG+ewjU0pL5/3bCWFjl4zkENQC7/7X/SOyB8SgNwBqAe1msArcwUqaNkjGgxnkagC2ur+3wAraGeL+/wIU6LMJPpQG4CZbBWDh4mo9ANABrAL4AG2E8TAOwBuBLpI1MAJZE0DLIPQudiUAdQY0Q/C5J6IiXsCmEvfQbMFJnjPBT6UwQPzmwgEA/RGkA1gB80iu672FcdBwHsAfbsQUbkIpVYg3WYj02Y4cEyePIhwZgDcDdsNfiy/+qEXK/uLDQY1DtRrUQLzFeH3diLg6EqDf4FdTUhOWH0hA8GcbCCTwZZq8+NADb90g8i1wXLq5LMQuv4jb0R090QTPUQTkkIwVlURk10Ajd0Re34kV8jQXYF7EBWANwO4sv61Nxjs4CoaRtqnhkoZky6IsPQ/D9RS5myDXH06WlAfgeZMBY+A4JGoA1AMuMD9c62FOUj214B4PRFCUc7jU5F1dhIjIiLgBrAG6GlTAB2IjmEXKvaIVUi3D4IO4KY0O89kGkdEZ0wRhQQRsekYePZVYMz5aWBuDLsNeBibJbawCGBuAU/ArjgP2YgLYoFYRtr4S9EReANQCfb7ES3BZ0ipB7RSMsthgrHaKPpbVk+rT6GIiZOBiEZedz8KpnF8/Q0pKb/hoYC9l4TAMwNAB3x14Heg/+Rm8kBfE3L4s9EReANQDXxm8wAdiByyLkXlEPf1n0lLcJ7R5oyRu6kuiKN7EO2S5PlXYfYrX1vVh6QsThXQc+CPoZVSI+AGsAnoBcyyEPH6FukH5qDcAagCtjhsWX/8Mj5F5RzeLD1l3o47md0tVgG2IsKNcW1tiIptriXi19IhyEbAdeV18RuQFYA7B8gLbQsuf3M9QK4k+tAVgDcGl8bLE9z0XIvaIcvrRYPWyUZ3dOc8B5uB1zXBgnnIc3Ea8t7bnSko+AdsFYeglJERuANQBfj8MW2/cbzgvyT60BWANwPF63XA0zOQLuEwmYZPFmZ7y391BLOjHuRKrDPcLbcaG2sOdKS3pAvoGxtBLnR14A1gAsQ2letZzTd7DFJmgA1gBsNRuOxUdBs1EvQu4VD1i001T53bxfOjSiPl7AThiHTPLcegFaWjJv4C0OfBWai+v9fZBrALYIj59ZbNv3IVxQQAOwBuDeFjf7TegSQcsh77Z4UNC5Yf3V498Lvzo0p/sc1NaW9WLpwd4CqTCW/kaViAvAGoBr4meL1QTvDOHPrQFYA/C5+MfiS/eBEXKfaIjlFt+J9NC7rS9n/5jiwNjgXeipLSql5bkJs2UcnP2UaP591aUB2OLGuMinU0lpANYAHI+ZFtv0GlIi4D6RaLl8/oO+vTfodKmvOzAu+EFtTa+WHuTX2M7hKtLQLaICsAbgttgIE4ANoVxNSwOwBmDZpqcternWoaEX2tbjUx1OR0Vf7rjmg5o2D4niE68uiKKlB3hFyITw1r5AhYgJwBqA/4MDMAFYjsoagDUAhzgAX4dDFlM9DUN0BNwnhuBogO20Ey19u/OaEXpgm8W5+4eOA/Zsacma5ukwlo5jNGIiIgBrAO5l0Su00APT52kA1gBcH9sttutHFI+Ae0QT7LZ4UBiHON82gA6VtPnY+R+Z6tKTpaUHeBXIWE5rqz21AowG4Glu9gxYLKayBGU0AGsADnEATsaflosBdYqAe0QJUAG30yac68+915IZo45ZDHfzdCbQ0inRhiMLxlI+Pgj9620NwOIDRLm0Xd0txo+vtlj6WAOwBmCnp4PMsVzGu0SY3yNicLfFG58cPO3bj+E0I7S1GAaxB221Fb1ceoBXxd8wDjiBN0M7x6sGYPE5El28KG6yWCve0XGBGoA1AFsMg1hjsW2HMDQC7hENsDHy3g5Smg9qWfz2mV6fM1tLD/AoXI8MB0Pw247MD6wB+GGL7ZqOki5tV2MstegVuEYDsAcCsAbgBIyHsbAITcL8HpGMFywXTXrFl2OmNR+URKoG4PAunRFCQqCDIXiydQjWAHynxYp9f6G2S9tVF39ZvDp+VgOwBuBQB2DZtk5Isxn6FQnhjv27GLss2ukwRupQCF/OCbweJgC70UZb0fOlJeM6N8A4JAdTrYZDaAAebtEzvw4d3Pp40nKOyB9QyQMBWAOwBuAUTIGxDHejEB/G94cyNjMCiC24xFc7rrmgKbbCBGANGmsravnlY4cHkelwT/AHaBTQRmkAHmAxV+kx/Nel7SqGqRZttgdXawDWABzqACzbd7XFsWDEPtyG5DC+R9woYd9YoHQ8sF9K7kEHYQIwF/W0Ff1UOhTiexgH5WIhRqCkBuCzDg67vbhkqwzPyLbYtp9QzQMBWAOwBuDSDl33DuI+pITxB9NzHJgt6A90d26WGi0Xx8i/b/Fbz/TRt0BaWjImToZCOOwIvkZHJBRpYzQAX2g5PnET2rh4nGy0fDvwmGNhQQOwBmD7xV12w1g6ijGoGKb3h/44AGNpPW5AcqQvNoGyiPPoSnBbLX7jyX6cJlBL5wYeAAkHjtuOsUW6SWsAro9Flr0tn6K8SxPk/+hAWBiP8hqANQCHOADHY4xDc6JnYQZ6eCEAyL5FOfRvJeIl5MJYOoxnUB9RHjpeY3EOaiHK5b91Jb7H/eiIch5pg5aYbdnBMVoTlV9Ln0ofxDEYF+RiNu5Ee6SEeH8/92gAjsfXlm2djZdRy4XtG2szDEJk4F20tww6GoA1ANt/8S7nm0P24S10ttkHi6DaQYLVdYh1eG7YXxz8WHo2HkQzRId4CGAPPIu5eNrtnlnZbyO2yb3oDrRBQoi+BeqBP2xXhtUZIHxbWjIu7k2cgHFJNtZhJh5CGxRz+avvKMQiQYJGdyzwYgCW7X3cgd/gBL7HlSiJaIe2rYtDbwrysE6CekskBWHcZzkNwBqATy55EFsB46D1mCjBoiLiEO3wNS0OJdFWAtQXWIccfIpEh9vpUmx2eNaglXgFHVEM0k6uvOWMRSLqoD9ex5/YASO+dzOEyu819TT3xVQJwyNxrpvXRGmPZDn2J2IrjKXPkKRJyrelJdNdfeJqCIbIxE78KWG4HeqgOiqhLEogETGF3AiiEYdklEJ5VJV/qy0G4Ul8g3XYixMeDsBXQb7CtXYAs3E/uqIWyklbRQc4hdRXDr8Z2I4fcTdaowbKIwVxiDqLnow4JKI4ykj4qIkWuAlHNQBrAD7F9g7FQRfeeu3HGryP69GwwLWtJJJPN1xBjud4JKEUKqMuOmAIXsUi7EI6TAGLkeJCT+H9yHC4nfKwGwvwFoahjdwHyqAEpJ3kuDh9WyWi2Ent1RE34Gl8hzQcRj7MSVJR0sXjrHYRVmE9hn/xMx5FDzRANZST9khCbBGDbiJKoDxqoBPuwLfY6dDQlnTcrAlKK1y+/H0XWTBBkoMM7MIq/IWvMRnP4F7ciGvxXwyRC+XNuFMC9It4X8LUPxKsMiXs5p58wfNwAK6JNS6173pMx8u4FTUD/Bhum0vHwDGk4nu8Jr/rbRJQ+uMaOQb6yX8/UI6L0RKgH8bTeAtf4A9swPFCHno0AGsALiaBUq4RjsvHCezBbHyNaXhRQs6tGIS+EpRH4x48hufwAeZKYJFrWqEL5uxATZeGEX0C45K8AteBVfgKk6Sdxso5PlzuAf0k2N5coK2exkS8L+28o+A9oIjfqzRx8Thrhd1n+RCVjUNYjhmYKsfE/RiFmyDHjtwfaReMxJ14Uo61H7FWwmqOo8c6RdXR9BROpT3Bk5AJo4IagGPxNOSC7Zpj6BHgVDljkAPjdxqANQAXePD82OK885IDuMCldmqA6ZAAHlYO4CqX3+6FW7sdxHWamrTCcUnEiZDXa0rcEaTVeP6FcVEqWlvMVvEXjO9pANYALCWv3d9EFoyPHccoF9upLt7FCZgwkoH7XPzA+bEwa698vIpimpi0wq5k7NDt2AYTNBqAk/EyjIt+R23LFYN2wXiKBmANwPZLAD+JwzA+lYsJQZhBYYKEbRNGJrnUXsUtvp/wqnlooElJK2xLXslfjrnIhwbg4LR7G6yBcclHSLFcNegW7IbxFA3AGoDtH0Dv8vkD3nREB6GD5GHsgwkT3yPRpXN8XRi100pcrgkpUkqDcGNMxTENwEFboGSgiwHzeQe2MQ4jsAPGizQAawC2OLavxwYY36GoikFaPncktsCEgQWo69JCE0fCZNjDPHTXVKQVUSWvBwfIRSJXA3BQJrd/xIVx2Jm43cE3BDc6OWZZA7AGYA+tknkxfpZ2Nj6yFm2C+JbwEnwXBkMiNqKrC3PR32BxDHlFHn5CC01DWhFbMp/hk0jTAOx6W5fEyzgE45BduNLhOUKvwjz7leKgAVgDsIdK5lAdioU+mhlnD64JUQfJbB8H4SMY5MKD1Ks+nwFiDyZDrjVaWjo2uCvexgaYCHF7CNq6GIZjlYO9Q61c6OWogcewBsarNABrALY4vh/GUh98D5GLu0M4g9AdmIdcHwa9/i4E4Fd8OnzwML5Bb13pTUvr1NO7dMJTWBOG8xzmYQd+wBNoFMIbcHt8inQHxrlVcPG1cXu8YftxjAZgDcAeDcLN8CQ2w3jQUXyNTiFuq3PxAFZ4/L6Qg9V4DVeivEtTxw3Em1jtg3nUs/ArhqCsJh0trTN/DNEYt8uJcwAnfBZ0s3AU22UfnsN1aImqiPVAO1dAT7yD7QG28cwgfSHeEWMk1BzxaG9QvrRhBo5iDxbjE4zHIFR2e0opi2m3sj0YgK+0+D0WIcYn17tWuB3fYAcyQhD0cuXvHpC2ewYXoKJH2ikGDTEM07EX2R4Id0ewEq/jOjRAShDaIwUN5G9Owjoc98C1MU+2I1XapA+qa7LR0jr7C15JtMFYzMZWj40Jy5XAsQ2r8Rem4A78B9VkHxI93M7JaISHpY3XYy9OFGHfJwb5DUE5XIAJWIQtOICcIN7wDku43Yq1WILf8K4cp0PQGTVRBimID+LYyV+wMAB/e+1GJUOjFgewL/9gGqJ9dr0rjjoYgKmyH7uQ60JIOYqdWC+//aty7DZCGSR4tJ2iUQKNcbeE4RXY7vJiS+nYg41Yii9wDzqhApJCfA2vgp6YIL/nhiBdG0/gALZIu0zGFaiiQx20tJx7XVgSXXAL3oSsSR6U8VCZ2CV/by6mS9Adh6ESymojAdGI8mkbJ6MxrsWjeE8C1WKswRYJx+k4jltDeBMsh44YhDESeL6X0LAe/2KPBNasU1y003FI9mcH0rAeq2R//8QsfIK38Szuw1BcJeHsPJSS8BItbRjlgSAVEC8ekxb7E+3z6100KqEHxsm5+CV+xGwswXrsKPhWpEAP3H4JhRvlmJ6HGXKePIGR6IEGSPbjdUvaKRZVcRHuwOv4vMB1axP2ShtlnCIQZuMo9he4DqzFMvyBz/Cy/NtXogXKIgZRHr6ON8EAPIa38BX+xBLZv39ln9Nx4jQPWdk4dlLbpGIBZmISHpG/0wEVg3Md0dLSUFwZ7XENRmEcJmEmFiEVaRJcD0mIPVHg9XQa1khgmo2f8a0Enml4RYLVaPwXl8nfOwelI6gXvpqE4rbojp64DgNQ12MX/opogk64AD0krPbHDRiGGzEQfXGl7M/Fsm8d0Vr2tzbKeagnTEs7AVIkFNdDUzleL5FjfLAc30Pk/Owtx3VnOabPRZkIaavkAtetLnKOX41+GIQbMVz+8wBcg97Slt0kzDVHLSSFSZsUl/1pKvt3oexzXwzEEGmPYWdom/Zo4L3xvFpaOptECQnGdXEeGqIpWqCNhLhWaIZG8n9TD7VQDZUk9JRCMejTbOH1/+3BgQAAAAAAkP9rI6iqqqqqqqqqqqqqqqqqqqqqqqqqqqqqqqqqqqqqqqqqqqqqqqqqqqqqqqqqqqqqqqqqqqqqqqqqqqqqqqqqqqqqqqqqqqqqqqqqqqqqqqqqqqqqqqqqKh9kUQze3Ak1AAAAAElFTkSuQmCC;clipPath=inset(0.46% 9% 30.28% 10.33%);fontSize=18;" vertex="1" parent="1">
          <mxGeometry x="175" y="914" width="64.11" height="40" as="geometry" />
        </mxCell>
        <mxCell id="frIzDJCanj5uJxa8QT5g-86" value="" style="image;html=1;image=img/lib/clip_art/computers/Server_Tower_128x128.png" vertex="1" parent="1">
          <mxGeometry x="614" y="35" width="80" height="80" as="geometry" />
        </mxCell>
        <mxCell id="frIzDJCanj5uJxa8QT5g-88" style="rounded=0;orthogonalLoop=1;jettySize=auto;html=1;exitX=0.5;exitY=0;exitDx=0;exitDy=0;entryX=0.5;entryY=1;entryDx=0;entryDy=0;strokeWidth=3;dashed=1;" edge="1" parent="1" source="frIzDJCanj5uJxa8QT5g-87" target="frIzDJCanj5uJxa8QT5g-86">
          <mxGeometry relative="1" as="geometry" />
        </mxCell>
        <mxCell id="frIzDJCanj5uJxa8QT5g-91" value="&lt;font style=&quot;font-size: 18px;&quot;&gt;update DDNS record&lt;/font&gt;" style="edgeLabel;html=1;align=center;verticalAlign=middle;resizable=0;points=[];labelBackgroundColor=none;fontSize=18;" vertex="1" connectable="0" parent="frIzDJCanj5uJxa8QT5g-88">
          <mxGeometry relative="1" as="geometry">
            <mxPoint x="-94" y="200" as="offset" />
          </mxGeometry>
        </mxCell>
        <mxCell id="frIzDJCanj5uJxa8QT5g-87" value="duckdns" style="shape=image;verticalLabelPosition=bottom;verticalAlign=top;imageAspect=0;aspect=fixed;image=data:image/svg+xml,PHN2ZyB4bWxucz0iaHR0cDovL3d3dy53My5vcmcvMjAwMC9zdmciIHZpZXdCb3g9IjAgMCA0OCA0OCI+PHBhdGggZmlsbD0iIzA0MDUwMiIgZD0iTTIxLjI2NiAyMC4wNDJjLTEuNDUxIDAtNC43NzguNzA0LTUuOTgtLjAwNi0uODg1LS41MjMtMS40NTgtMS43NTUtMi4xNzItMi40ODhhMTYuNDg2IDE2LjQ4NiAwIDAgMC00LjU2OS0zLjI5MWMtLjc2NC0uMzczLTEuODM0LTEuMDE0LTIuNzEtLjcyNS0xLjY0Mi41NDItMi44NjUgMy4yMS0zLjYyIDQuNjMzLTIuOTY2IDUuNTgzLTIuNzU2IDEyLjc2NC0uNTM4IDE4LjU2IDEuNjA0IDQuMTg4IDQuNDU2IDUuNTkxIDguNTM3IDYuOTUgNi4wNDMgMi4wMTMgMTMuNDYgMi40MTMgMTkuNjAyLjU5OCAzLjc3Mi0xLjExNSA2LjUwMS0xLjgwNCA4LjQ4NS01LjQ2NCAxLjkwNi0zLjUxNSAyLjg0LTcuOSAyLjI2OS0xMS44ODYtLjI0My0xLjY5OC0xLjg0LTQuNjg2LTEuNTUxLTYuMjQzLjIzLTEuMjQyIDIuNzkyLS44MyAzLjcyNi0xLjE4NCAyLjczNC0xLjAzOCA2Ljg4Mi02LjAzIDQuNTktOS4xOS0xLjE4Mi0xLjYyOC01LjAwNC4zMTctNi41OTQtLjY5Ny0uOTI4LS41OTEtMS40MzktMi4yNTUtMi4xMy0zLjEyMS0xLjU0Ni0xLjk0MS0zLjY4Ny0zLjEzLTYuMDg0LTMuNjY2LTYuNjM1LTEuNDg0LTEyLjc0MSAzLjY5LTEzLjExOCAxMC4zMzgtLjE0NCAyLjUzOC44OTIgNC42MyAxLjg1NyA2Ljg4MnoiLz48cGF0aCBmaWxsPSIjZmNmYzAxIiBkPSJNMjguNTY0IDUuMTI1Yy01LjMyNSAxLjAwNS03LjgzNyA3LTYuMDczIDExLjc4OC40NjUgMS4yNjIgMy43OTQgNC4xNjQgMi40NjIgNS4yOTctLjY0Mi41NDUtMS44NjQuMzQyLTIuNjQ1LjMzMy0xLjg4Ni0uMDIyLTMuNzM2LS4xNjYtNS42My4wNi0xLjA0NC4xMjUtMi4yMS41NC0zLjA0Ny0uMzE2LTEuNzE0LTEuNzUyLTIuNjg1LTMuNzg4LTQuODc3LTUuMTUxLS42MzgtLjM5Ny0xLjY4LTEuMTc0LTIuNDQtLjctMS4zMzkuODMzLTIuMjI1IDMuMjM3LTIuNzYgNC42NDgtMS41OTMgNC4xOTYtMS4zMzUgOS4xMDgtLjA3MiAxMy4zNDYuNDM4IDEuNDcgMS4wMzIgMy40MzcgMi4xODggNC41MDYgMS40NDIgMS4zMzQgMy45NDIgMi4wOCA1Ljc5NSAyLjYxMyA1LjIzOCAxLjUwOCAxMC45MTMgMS44NTUgMTYuMjY1Ljc0NiAyLjAxOC0uNDE5IDUuMjI2LS45NTYgNi44MTQtMi4zMzkgMy4zOTItMi45NTQgNC4wNjItOS4xMDMgMy41NTMtMTMuMjQxLS4yNTUtMi4wNzQtMS43ODQtNC4wNzUtMS45MTMtNi4wNDgtLjEwNy0xLjYxOCAyLjA2Ny0zLjYxNiAyLjMyNy01LjQyMi44NDYtNS44Ny0zLjgwNi0xMS4yNzktOS45NDctMTAuMTJ6Ii8+PHBhdGggZmlsbD0iIzA0MDUwMiIgZD0iTTMxLjkwMiA4LjkzNmMtMi43NDQgMS4wNDgtLjk0MSA1LjA4NyAxLjY2NCA0LjAxNCAyLjcwNC0xLjExNC45NC01LjAxLTEuNjY0LTQuMDE0eiIvPjxwYXRoIGZpbGw9IiNmZDAxMDEiIGQ9Ik00MC44NjggMTEuNDkyYy40NjQgMi41LS4yNyA0LjQ1OC0uNjI2IDYuODgxIDMuODQ1LS4zMzUgNS44MjktMy4xOTcgNS44MzktNi44ODF6Ii8+PC9zdmc+;fontSize=18;" vertex="1" parent="1">
          <mxGeometry x="630" y="620" width="48" height="48" as="geometry" />
        </mxCell>
        <mxCell id="frIzDJCanj5uJxa8QT5g-92" value="glances" style="text;strokeColor=none;align=center;fillColor=none;html=1;verticalAlign=middle;whiteSpace=wrap;rounded=0;fontSize=18;" vertex="1" parent="1">
          <mxGeometry x="175" y="958" width="60" height="30" as="geometry" />
        </mxCell>
        <mxCell id="frIzDJCanj5uJxa8QT5g-93" value="DuckDNS.org server" style="text;strokeColor=none;align=center;fillColor=none;html=1;verticalAlign=middle;whiteSpace=wrap;rounded=0;fontSize=20;" vertex="1" parent="1">
          <mxGeometry x="710" y="70" width="106" height="30" as="geometry" />
        </mxCell>
      </root>
    </mxGraphModel>
  </diagram>
</mxfile>
